{
  "source": "C:\\Users\\Peter\\Desktop\\stuff\\MIUN\\quantitative_research\\video_compression\\videos\\BVI-HD\\BVI-HD_CDVL_videos\\ORIG\\Music_1920x1080_30fps.mp4",
  "output": "C:\\Users\\Peter\\Desktop\\stuff\\MIUN\\quantitative_research\\video_compression\\compressed_videos\\BVI-HD\\hevc\\3\\Music_1920x1080_30fps_hevc.mp4",
  "codec": "hevc",
  "ok": "Input #0, mov,mp4,m4a,3gp,3g2,mj2, from 'C:\\Users\\Peter\\Desktop\\stuff\\MIUN\\quantitative_research\\video_compression\\videos\\BVI-HD\\BVI-HD_CDVL_videos\\ORIG\\Music_1920x1080_30fps.mp4':\n  Metadata:\n    major_brand     : isom\n    minor_version   : 512\n    compatible_brands: isomiso2avc1mp41\n    encoder         : Lavf54.28.101\n  Duration: 00:00:05.00, start: 0.000000, bitrate: 192710 kb/s\n  Stream #0:0[0x1](und): Video: h264 (High 4:4:4 Predictive) (avc1 / 0x31637661), yuv420p(progressive), 1920x1080, 192707 kb/s, 30 fps, 30 tbr, 30 tbn (default)\n    Metadata:\n      handler_name    : VideoHandler\n      vendor_id       : [0][0][0][0]\n[out#0/mp4 @ 000002032f403c80] Codec AVOption b:a (set bitrate (in bits/s)) has not been used for any stream. The most likely reason is either wrong type (e.g. a video option with no video streams) or that it is a private option of some decoder which was not actually used for any stream.\nStream mapping:\n  Stream #0:0 -> #0:0 (h264 (native) -> hevc (libx265))\nPress [q] to stop, [?] for help\n[libx265 @ 000002032f010140] Unknown option: \"aq-mode.\nx265 [info]: HEVC encoder version 4.1+190-8f11c33ac\nx265 [info]: build info [Windows][GCC 15.1.0][64 bit] 10bit\nx265 [info]: using cpu capabilities: MMX2 SSE2Fast LZCNT SSSE3 SSE4.2 AVX FMA3 BMI2 AVX2\nx265 [info]: Main 10 profile, Level-4 (Main tier)\nx265 [info]: Thread pool created using 12 threads\nx265 [info]: Slices                              : 1\nx265 [info]: frame threads / pool features       : 3 / wpp(17 rows)\nx265 [info]: Coding QT: max CU size, min CU size : 64 / 8\nx265 [info]: Residual QT: max TU size, max depth : 32 / 1 inter / 1 intra\nx265 [info]: ME / range / subpel / merge         : star / 57 / 3 / 3\nx265 [info]: Keyframe min / max / scenecut / bias  : 25 / 250 / 40 / 5.00 \nx265 [info]: Lookahead / bframes / badapt        : 25 / 4 / 2\nx265 [info]: b-pyramid / weightp / weightb       : 1 / 1 / 0\nx265 [info]: References / ref-limit  cu / depth  : 4 / on / on\nx265 [info]: AQ: mode / str / qg-size / cu-tree  : 2 / 1.0 / 32 / 1\nx265 [info]: Rate Control / qCompress            : ABR-3000 kbps / 0.60\nx265 [info]: VBV/HRD buffer / max-rate / init    : 3000 / 3000 / 0.750\nx265 [info]: tools: rect limit-modes rd=4 psy-rd=2.00 rdoq=2 psy-rdoq=1.00\nx265 [info]: tools: rskip mode=1 signhide tmvp strong-intra-smoothing lslices=4\nx265 [info]: tools: deblock sao dhdr10-info\nOutput #0, mp4, to 'C:\\Users\\Peter\\Desktop\\stuff\\MIUN\\quantitative_research\\video_compression\\compressed_videos\\BVI-HD\\hevc\\3\\Music_1920x1080_30fps_hevc.mp4':\n  Metadata:\n    major_brand     : isom\n    minor_version   : 512\n    compatible_brands: isomiso2avc1mp41\n    encoder         : Lavf62.3.100\n  Stream #0:0(und): Video: hevc (hev1 / 0x31766568), yuv420p10le(tv, progressive), 1920x1080, q=2-31, 3000 kb/s, 30 fps, 15360 tbn (default)\n    Metadata:\n      encoder         : Lavc62.11.100 libx265\n      handler_name    : VideoHandler\n      vendor_id       : [0][0][0][0]\n    Side data:\n      cpb: bitrate max/min/avg: 3000000/0/3000000 buffer size: 3000000 vbv_delay: N/A\nframe=    0 fps=0.0 q=0.0 size=       0KiB time=N/A bitrate=N/A speed=N/A elapsed=0:00:00.52    \nframe=    0 fps=0.0 q=0.0 size=       0KiB time=N/A bitrate=N/A speed=N/A elapsed=0:00:01.03    \nframe=    0 fps=0.0 q=0.0 size=       0KiB time=N/A bitrate=N/A speed=N/A elapsed=0:00:01.55    \nframe=    0 fps=0.0 q=0.0 size=       0KiB time=N/A bitrate=N/A speed=N/A elapsed=0:00:02.05    \nframe=    0 fps=0.0 q=0.0 size=       0KiB time=N/A bitrate=N/A speed=N/A elapsed=0:00:02.57    \nframe=    0 fps=0.0 q=0.0 size=       0KiB time=N/A bitrate=N/A speed=N/A elapsed=0:00:03.09    \nframe=    0 fps=0.0 q=0.0 size=       0KiB time=N/A bitrate=N/A speed=N/A elapsed=0:00:03.60    \nframe=    0 fps=0.0 q=0.0 size=       0KiB time=N/A bitrate=N/A speed=N/A elapsed=0:00:04.12    \nframe=    0 fps=0.0 q=0.0 size=       0KiB time=N/A bitrate=N/A speed=N/A elapsed=0:00:04.64    \nframe=    1 fps=0.2 q=35.0 size=       0KiB time=-00:00:00.03 bitrate=N/A speed=N/A elapsed=0:00:05.16    \nframe=    1 fps=0.2 q=35.0 size=       0KiB time=-00:00:00.03 bitrate=N/A speed=N/A elapsed=0:00:05.67    \nframe=    1 fps=0.2 q=35.0 size=       0KiB time=-00:00:00.03 bitrate=N/A speed=N/A elapsed=0:00:06.18    \nframe=    2 fps=0.3 q=35.9 size=       0KiB time=00:00:00.00 bitrate=N/A speed=   0x elapsed=0:00:06.70    \nframe=    2 fps=0.3 q=35.9 size=       0KiB time=00:00:00.00 bitrate=N/A speed=   0x elapsed=0:00:07.22    \nframe=    2 fps=0.3 q=35.9 size=       0KiB time=00:00:00.00 bitrate=N/A speed=   0x elapsed=0:00:07.77    \nframe=    2 fps=0.2 q=35.9 size=       0KiB time=00:00:00.00 bitrate=N/A speed=   0x elapsed=0:00:08.30    \nframe=    2 fps=0.2 q=35.9 size=       0KiB time=00:00:00.00 bitrate=N/A speed=   0x elapsed=0:00:08.81    \nframe=    2 fps=0.2 q=35.9 size=       0KiB time=00:00:00.00 bitrate=N/A speed=   0x elapsed=0:00:09.32    \nframe=    3 fps=0.3 q=37.7 size=       0KiB time=00:00:00.03 bitrate=  10.6kbits/s speed=0.00339x elapsed=0:00:09.84    \nframe=    3 fps=0.3 q=37.7 size=       0KiB time=00:00:00.03 bitrate=  10.6kbits/s speed=0.00322x elapsed=0:00:10.36    \nframe=    3 fps=0.3 q=37.7 size=       0KiB time=00:00:00.03 bitrate=  10.6kbits/s speed=0.00306x elapsed=0:00:10.88    \nframe=    3 fps=0.3 q=37.7 size=       0KiB time=00:00:00.03 bitrate=  10.6kbits/s speed=0.00293x elapsed=0:00:11.39    \nframe=    4 fps=0.3 q=32.5 size=       0KiB time=00:00:00.06 bitrate=   5.3kbits/s speed=0.00559x elapsed=0:00:11.91    \nframe=    4 fps=0.3 q=32.5 size=       0KiB time=00:00:00.06 bitrate=   5.3kbits/s speed=0.00536x elapsed=0:00:12.44    \nframe=    4 fps=0.3 q=32.5 size=       0KiB time=00:00:00.06 bitrate=   5.3kbits/s speed=0.00514x elapsed=0:00:12.96    \nframe=    4 fps=0.3 q=32.5 size=       0KiB time=00:00:00.06 bitrate=   5.3kbits/s speed=0.00494x elapsed=0:00:13.48    \nframe=    4 fps=0.3 q=32.5 size=       0KiB time=00:00:00.06 bitrate=   5.3kbits/s speed=0.00476x elapsed=0:00:14.00    \nframe=    4 fps=0.3 q=32.5 size=       0KiB time=00:00:00.06 bitrate=   5.3kbits/s speed=0.00459x elapsed=0:00:14.52    \nframe=    4 fps=0.3 q=32.5 size=       0KiB time=00:00:00.06 bitrate=   5.3kbits/s speed=0.00443x elapsed=0:00:15.03    \nframe=    5 fps=0.3 q=35.4 size=       0KiB time=00:00:00.10 bitrate=   3.5kbits/s speed=0.00643x elapsed=0:00:15.56    \nframe=    5 fps=0.3 q=35.4 size=       0KiB time=00:00:00.10 bitrate=   3.5kbits/s speed=0.00621x elapsed=0:00:16.09    \nframe=    5 fps=0.3 q=35.4 size=       0KiB time=00:00:00.10 bitrate=   3.5kbits/s speed=0.00602x elapsed=0:00:16.61    \nframe=    5 fps=0.3 q=35.4 size=       0KiB time=00:00:00.10 bitrate=   3.5kbits/s speed=0.00584x elapsed=0:00:17.13    \nframe=    5 fps=0.3 q=35.4 size=       0KiB time=00:00:00.10 bitrate=   3.5kbits/s speed=0.00566x elapsed=0:00:17.65    \nframe=    5 fps=0.3 q=35.4 size=       0KiB time=00:00:00.10 bitrate=   3.5kbits/s speed=0.0055x elapsed=0:00:18.17    \nframe=    5 fps=0.3 q=35.4 size=       0KiB time=00:00:00.10 bitrate=   3.5kbits/s speed=0.00535x elapsed=0:00:18.69    \nframe=    5 fps=0.3 q=35.4 size=       0KiB time=00:00:00.10 bitrate=   3.5kbits/s speed=0.0052x elapsed=0:00:19.22    \nframe=    6 fps=0.3 q=28.7 size=       0KiB time=00:00:00.13 bitrate=   2.6kbits/s speed=0.00675x elapsed=0:00:19.75    \nframe=    6 fps=0.3 q=28.7 size=       0KiB time=00:00:00.13 bitrate=   2.6kbits/s speed=0.00658x elapsed=0:00:20.26    \nframe=    6 fps=0.3 q=28.7 size=       0KiB time=00:00:00.13 bitrate=   2.6kbits/s speed=0.00641x elapsed=0:00:20.79    \nframe=    7 fps=0.3 q=32.0 size=       0KiB time=00:00:00.16 bitrate=   2.1kbits/s speed=0.00781x elapsed=0:00:21.32    \nframe=    7 fps=0.3 q=32.0 size=       0KiB time=00:00:00.16 bitrate=   2.1kbits/s speed=0.00763x elapsed=0:00:21.85    \nframe=    7 fps=0.3 q=32.0 size=       0KiB time=00:00:00.16 bitrate=   2.1kbits/s speed=0.00745x elapsed=0:00:22.37    \nframe=    7 fps=0.3 q=32.0 size=       0KiB time=00:00:00.16 bitrate=   2.1kbits/s speed=0.00727x elapsed=0:00:22.92    \nframe=    7 fps=0.3 q=32.0 size=       0KiB time=00:00:00.16 bitrate=   2.1kbits/s speed=0.0071x elapsed=0:00:23.48    \nframe=    7 fps=0.3 q=32.0 size=       0KiB time=00:00:00.16 bitrate=   2.1kbits/s speed=0.00694x elapsed=0:00:23.99    \nframe=    7 fps=0.3 q=32.0 size=       0KiB time=00:00:00.16 bitrate=   2.1kbits/s speed=0.0068x elapsed=0:00:24.51    \nframe=    8 fps=0.3 q=28.2 size=       0KiB time=00:00:00.20 bitrate=   1.8kbits/s speed=0.00799x elapsed=0:00:25.03    \nframe=    8 fps=0.3 q=28.2 size=       0KiB time=00:00:00.20 bitrate=   1.8kbits/s speed=0.00782x elapsed=0:00:25.55    \nframe=    8 fps=0.3 q=28.2 size=       0KiB time=00:00:00.20 bitrate=   1.8kbits/s speed=0.00767x elapsed=0:00:26.07    \nframe=    8 fps=0.3 q=28.2 size=       0KiB time=00:00:00.20 bitrate=   1.8kbits/s speed=0.00752x elapsed=0:00:26.59    \nframe=    8 fps=0.3 q=28.2 size=       0KiB time=00:00:00.20 bitrate=   1.8kbits/s speed=0.00738x elapsed=0:00:27.11    \nframe=    8 fps=0.3 q=28.2 size=       0KiB time=00:00:00.20 bitrate=   1.8kbits/s speed=0.00724x elapsed=0:00:27.62    \nframe=    8 fps=0.3 q=28.2 size=       0KiB time=00:00:00.20 bitrate=   1.8kbits/s speed=0.0071x elapsed=0:00:28.15    \nframe=    8 fps=0.3 q=28.2 size=       0KiB time=00:00:00.20 bitrate=   1.8kbits/s speed=0.00697x elapsed=0:00:28.67    \nframe=    8 fps=0.3 q=28.2 size=       0KiB time=00:00:00.20 bitrate=   1.8kbits/s speed=0.00685x elapsed=0:00:29.19    \nframe=    8 fps=0.3 q=28.2 size=       0KiB time=00:00:00.20 bitrate=   1.8kbits/s speed=0.00673x elapsed=0:00:29.70    \nframe=    9 fps=0.3 q=30.2 size=       0KiB time=00:00:00.23 bitrate=   1.5kbits/s speed=0.00772x elapsed=0:00:30.22    \nframe=    9 fps=0.3 q=30.2 size=       0KiB time=00:00:00.23 bitrate=   1.5kbits/s speed=0.00759x elapsed=0:00:30.74    \nframe=    9 fps=0.3 q=30.2 size=       0KiB time=00:00:00.23 bitrate=   1.5kbits/s speed=0.00746x elapsed=0:00:31.26    \nframe=    9 fps=0.3 q=30.2 size=       0KiB time=00:00:00.23 bitrate=   1.5kbits/s speed=0.00734x elapsed=0:00:31.79    \nframe=    9 fps=0.3 q=30.2 size=       0KiB time=00:00:00.23 bitrate=   1.5kbits/s speed=0.00722x elapsed=0:00:32.31    \nframe=    9 fps=0.3 q=30.2 size=       0KiB time=00:00:00.23 bitrate=   1.5kbits/s speed=0.00711x elapsed=0:00:32.83    \nframe=   10 fps=0.3 q=31.3 size=       0KiB time=00:00:00.26 bitrate=   1.3kbits/s speed=0.008x elapsed=0:00:33.34    \nframe=   10 fps=0.3 q=31.3 size=       0KiB time=00:00:00.26 bitrate=   1.3kbits/s speed=0.00788x elapsed=0:00:33.85    \nframe=   10 fps=0.3 q=31.3 size=       0KiB time=00:00:00.26 bitrate=   1.3kbits/s speed=0.00775x elapsed=0:00:34.38    \nframe=   10 fps=0.3 q=31.3 size=       0KiB time=00:00:00.26 bitrate=   1.3kbits/s speed=0.00764x elapsed=0:00:34.90    \nframe=   11 fps=0.3 q=28.6 size=       0KiB time=00:00:00.30 bitrate=   1.2kbits/s speed=0.00847x elapsed=0:00:35.42    \nframe=   11 fps=0.3 q=28.6 size=       0KiB time=00:00:00.30 bitrate=   1.2kbits/s speed=0.00835x elapsed=0:00:35.94    \nframe=   11 fps=0.3 q=28.6 size=       0KiB time=00:00:00.30 bitrate=   1.2kbits/s speed=0.00823x elapsed=0:00:36.46    \nframe=   12 fps=0.3 q=29.4 size=       0KiB time=00:00:00.33 bitrate=   1.1kbits/s speed=0.00901x elapsed=0:00:36.98    \nframe=   12 fps=0.3 q=29.4 size=       0KiB time=00:00:00.33 bitrate=   1.1kbits/s speed=0.00889x elapsed=0:00:37.51    \nframe=   12 fps=0.3 q=29.4 size=       0KiB time=00:00:00.33 bitrate=   1.1kbits/s speed=0.00877x elapsed=0:00:38.02    \nframe=   12 fps=0.3 q=29.4 size=       0KiB time=00:00:00.33 bitrate=   1.1kbits/s speed=0.00864x elapsed=0:00:38.55    \nframe=   12 fps=0.3 q=29.4 size=       0KiB time=00:00:00.33 bitrate=   1.1kbits/s speed=0.00853x elapsed=0:00:39.08    \nframe=   12 fps=0.3 q=29.4 size=       0KiB time=00:00:00.33 bitrate=   1.1kbits/s speed=0.0084x elapsed=0:00:39.66    \nframe=   12 fps=0.3 q=29.4 size=       0KiB time=00:00:00.33 bitrate=   1.1kbits/s speed=0.00829x elapsed=0:00:40.21    \nframe=   12 fps=0.3 q=29.4 size=       0KiB time=00:00:00.33 bitrate=   1.1kbits/s speed=0.00818x elapsed=0:00:40.74    \nframe=   12 fps=0.3 q=29.4 size=       0KiB time=00:00:00.33 bitrate=   1.1kbits/s speed=0.00806x elapsed=0:00:41.36    \nframe=   12 fps=0.3 q=29.4 size=       0KiB time=00:00:00.33 bitrate=   1.1kbits/s speed=0.00795x elapsed=0:00:41.93    \nframe=   12 fps=0.3 q=29.4 size=       0KiB time=00:00:00.33 bitrate=   1.1kbits/s speed=0.00785x elapsed=0:00:42.48    \nframe=   12 fps=0.3 q=29.4 size=       0KiB time=00:00:00.33 bitrate=   1.1kbits/s speed=0.00775x elapsed=0:00:43.01    \nframe=   12 fps=0.3 q=29.4 size=       0KiB time=00:00:00.33 bitrate=   1.1kbits/s speed=0.00765x elapsed=0:00:43.55    \nframe=   12 fps=0.3 q=29.4 size=       0KiB time=00:00:00.33 bitrate=   1.1kbits/s speed=0.00756x elapsed=0:00:44.08    \nframe=   12 fps=0.3 q=29.4 size=       0KiB time=00:00:00.33 bitrate=   1.1kbits/s speed=0.00747x elapsed=0:00:44.63    \nframe=   12 fps=0.3 q=29.4 size=       0KiB time=00:00:00.33 bitrate=   1.1kbits/s speed=0.00738x elapsed=0:00:45.15    \nframe=   13 fps=0.3 q=31.3 size=       0KiB time=00:00:00.36 bitrate=   1.0kbits/s speed=0.00802x elapsed=0:00:45.69    \nframe=   13 fps=0.3 q=31.3 size=       0KiB time=00:00:00.36 bitrate=   1.0kbits/s speed=0.00793x elapsed=0:00:46.23    \nframe=   13 fps=0.3 q=31.3 size=       0KiB time=00:00:00.36 bitrate=   1.0kbits/s speed=0.00784x elapsed=0:00:46.76    \nframe=   13 fps=0.3 q=31.3 size=       0KiB time=00:00:00.36 bitrate=   1.0kbits/s speed=0.00775x elapsed=0:00:47.29    \nframe=   13 fps=0.3 q=31.3 size=       0KiB time=00:00:00.36 bitrate=   1.0kbits/s speed=0.00767x elapsed=0:00:47.83    \nframe=   13 fps=0.3 q=31.3 size=       0KiB time=00:00:00.36 bitrate=   1.0kbits/s speed=0.00758x elapsed=0:00:48.36    \nframe=   13 fps=0.3 q=31.3 size=       0KiB time=00:00:00.36 bitrate=   1.0kbits/s speed=0.0075x elapsed=0:00:48.89    \nframe=   13 fps=0.3 q=31.3 size=       0KiB time=00:00:00.36 bitrate=   1.0kbits/s speed=0.00742x elapsed=0:00:49.41    \nframe=   13 fps=0.3 q=31.3 size=       0KiB time=00:00:00.36 bitrate=   1.0kbits/s speed=0.00735x elapsed=0:00:49.91    \nframe=   13 fps=0.3 q=31.3 size=       0KiB time=00:00:00.36 bitrate=   1.0kbits/s speed=0.00727x elapsed=0:00:50.43    \nframe=   14 fps=0.3 q=31.1 size=       0KiB time=00:00:00.40 bitrate=   0.9kbits/s speed=0.00785x elapsed=0:00:50.94    \nframe=   14 fps=0.3 q=31.1 size=       0KiB time=00:00:00.40 bitrate=   0.9kbits/s speed=0.00777x elapsed=0:00:51.47    \nframe=   14 fps=0.3 q=31.1 size=       0KiB time=00:00:00.40 bitrate=   0.9kbits/s speed=0.00769x elapsed=0:00:51.98    \nframe=   14 fps=0.3 q=31.1 size=       0KiB time=00:00:00.40 bitrate=   0.9kbits/s speed=0.00761x elapsed=0:00:52.52    \nframe=   14 fps=0.3 q=31.1 size=       0KiB time=00:00:00.40 bitrate=   0.9kbits/s speed=0.00754x elapsed=0:00:53.05    \nframe=   14 fps=0.3 q=31.1 size=       0KiB time=00:00:00.40 bitrate=   0.9kbits/s speed=0.00747x elapsed=0:00:53.56    \nframe=   14 fps=0.3 q=31.1 size=       0KiB time=00:00:00.40 bitrate=   0.9kbits/s speed=0.0074x elapsed=0:00:54.07    \nframe=   14 fps=0.3 q=31.1 size=       0KiB time=00:00:00.40 bitrate=   0.9kbits/s speed=0.00732x elapsed=0:00:54.61    \nframe=   14 fps=0.3 q=31.1 size=       0KiB time=00:00:00.40 bitrate=   0.9kbits/s speed=0.00725x elapsed=0:00:55.13    \nframe=   15 fps=0.3 q=28.0 size=       0KiB time=00:00:00.43 bitrate=   0.8kbits/s speed=0.00779x elapsed=0:00:55.65    \nframe=   15 fps=0.3 q=28.0 size=       0KiB time=00:00:00.43 bitrate=   0.8kbits/s speed=0.00771x elapsed=0:00:56.18    \nframe=   15 fps=0.3 q=28.0 size=       0KiB time=00:00:00.43 bitrate=   0.8kbits/s speed=0.00764x elapsed=0:00:56.73    \nframe=   15 fps=0.3 q=28.0 size=       0KiB time=00:00:00.43 bitrate=   0.8kbits/s speed=0.00757x elapsed=0:00:57.27    \nframe=   15 fps=0.3 q=28.0 size=       0KiB time=00:00:00.43 bitrate=   0.8kbits/s speed=0.00749x elapsed=0:00:57.81    \nframe=   16 fps=0.3 q=30.9 size=       0KiB time=00:00:00.46 bitrate=   0.8kbits/s speed=0.008x elapsed=0:00:58.34    \nframe=   16 fps=0.3 q=30.9 size=       0KiB time=00:00:00.46 bitrate=   0.8kbits/s speed=0.00793x elapsed=0:00:58.87    \nframe=   16 fps=0.3 q=30.9 size=       0KiB time=00:00:00.46 bitrate=   0.8kbits/s speed=0.00786x elapsed=0:00:59.40    \nframe=   16 fps=0.3 q=30.9 size=       0KiB time=00:00:00.46 bitrate=   0.8kbits/s speed=0.00779x elapsed=0:00:59.90    \nframe=   16 fps=0.3 q=30.9 size=       0KiB time=00:00:00.46 bitrate=   0.8kbits/s speed=0.00772x elapsed=0:01:00.43    \nframe=   16 fps=0.3 q=30.9 size=       0KiB time=00:00:00.46 bitrate=   0.8kbits/s speed=0.00766x elapsed=0:01:00.95    \nframe=   17 fps=0.3 q=27.3 size=       0KiB time=00:00:00.50 bitrate=   0.7kbits/s speed=0.00813x elapsed=0:01:01.50    \nframe=   17 fps=0.3 q=27.3 size=       0KiB time=00:00:00.50 bitrate=   0.7kbits/s speed=0.00806x elapsed=0:01:02.02    \nframe=   17 fps=0.3 q=27.3 size=       0KiB time=00:00:00.50 bitrate=   0.7kbits/s speed=0.008x elapsed=0:01:02.53    \nframe=   17 fps=0.3 q=27.3 size=       0KiB time=00:00:00.50 bitrate=   0.7kbits/s speed=0.00793x elapsed=0:01:03.04    \nframe=   17 fps=0.3 q=27.3 size=       0KiB time=00:00:00.50 bitrate=   0.7kbits/s speed=0.00786x elapsed=0:01:03.57    \nframe=   17 fps=0.3 q=27.3 size=       0KiB time=00:00:00.50 bitrate=   0.7kbits/s speed=0.0078x elapsed=0:01:04.10    \nframe=   17 fps=0.3 q=27.3 size=       0KiB time=00:00:00.50 bitrate=   0.7kbits/s speed=0.00773x elapsed=0:01:04.66    \nframe=   17 fps=0.3 q=27.3 size=       0KiB time=00:00:00.50 bitrate=   0.7kbits/s speed=0.00767x elapsed=0:01:05.22    \nframe=   18 fps=0.3 q=30.8 size=       0KiB time=00:00:00.53 bitrate=   0.7kbits/s speed=0.00811x elapsed=0:01:05.73    \nframe=   18 fps=0.3 q=30.8 size=       0KiB time=00:00:00.53 bitrate=   0.7kbits/s speed=0.00805x elapsed=0:01:06.25    \nframe=   18 fps=0.3 q=30.8 size=       0KiB time=00:00:00.53 bitrate=   0.7kbits/s speed=0.00798x elapsed=0:01:06.82    \nframe=   18 fps=0.3 q=30.8 size=       0KiB time=00:00:00.53 bitrate=   0.7kbits/s speed=0.00791x elapsed=0:01:07.38    \nframe=   18 fps=0.3 q=30.8 size=       0KiB time=00:00:00.53 bitrate=   0.7kbits/s speed=0.00785x elapsed=0:01:07.89    \nframe=   19 fps=0.3 q=27.4 size=       0KiB time=00:00:00.56 bitrate=   0.6kbits/s speed=0.00828x elapsed=0:01:08.40    \nframe=   19 fps=0.3 q=27.4 size=       0KiB time=00:00:00.56 bitrate=   0.6kbits/s speed=0.00822x elapsed=0:01:08.93    \nframe=   19 fps=0.3 q=27.4 size=       0KiB time=00:00:00.56 bitrate=   0.6kbits/s speed=0.00816x elapsed=0:01:09.47    \nframe=   19 fps=0.3 q=27.4 size=       0KiB time=00:00:00.56 bitrate=   0.6kbits/s speed=0.00809x elapsed=0:01:10.01    \nframe=   19 fps=0.3 q=27.4 size=       0KiB time=00:00:00.56 bitrate=   0.6kbits/s speed=0.00803x elapsed=0:01:10.54    \nframe=   19 fps=0.3 q=27.4 size=       0KiB time=00:00:00.56 bitrate=   0.6kbits/s speed=0.00797x elapsed=0:01:11.06    \nframe=   19 fps=0.3 q=27.4 size=       0KiB time=00:00:00.56 bitrate=   0.6kbits/s speed=0.00792x elapsed=0:01:11.58    \nframe=   19 fps=0.3 q=27.4 size=       0KiB time=00:00:00.56 bitrate=   0.6kbits/s speed=0.00786x elapsed=0:01:12.11    \nframe=   20 fps=0.3 q=27.6 size=       0KiB time=00:00:00.60 bitrate=   0.6kbits/s speed=0.00826x elapsed=0:01:12.62    \nframe=   20 fps=0.3 q=27.6 size=       0KiB time=00:00:00.60 bitrate=   0.6kbits/s speed=0.0082x elapsed=0:01:13.13    \nframe=   20 fps=0.3 q=27.6 size=       0KiB time=00:00:00.60 bitrate=   0.6kbits/s speed=0.00815x elapsed=0:01:13.66    \nframe=   20 fps=0.3 q=27.6 size=       0KiB time=00:00:00.60 bitrate=   0.6kbits/s speed=0.00809x elapsed=0:01:14.18    \nframe=   20 fps=0.3 q=27.6 size=       0KiB time=00:00:00.60 bitrate=   0.6kbits/s speed=0.00803x elapsed=0:01:14.71    \nframe=   21 fps=0.3 q=30.4 size=       0KiB time=00:00:00.63 bitrate=   0.6kbits/s speed=0.00842x elapsed=0:01:15.22    \nframe=   21 fps=0.3 q=30.4 size=       0KiB time=00:00:00.63 bitrate=   0.6kbits/s speed=0.00836x elapsed=0:01:15.75    \nframe=   21 fps=0.3 q=30.4 size=       0KiB time=00:00:00.63 bitrate=   0.6kbits/s speed=0.0083x elapsed=0:01:16.26    \nframe=   21 fps=0.3 q=30.4 size=       0KiB time=00:00:00.63 bitrate=   0.6kbits/s speed=0.00825x elapsed=0:01:16.78    \nframe=   21 fps=0.3 q=30.4 size=       0KiB time=00:00:00.63 bitrate=   0.6kbits/s speed=0.00819x elapsed=0:01:17.31    \nframe=   21 fps=0.3 q=30.4 size=       0KiB time=00:00:00.63 bitrate=   0.6kbits/s speed=0.00814x elapsed=0:01:17.83    \nframe=   21 fps=0.3 q=30.4 size=       0KiB time=00:00:00.63 bitrate=   0.6kbits/s speed=0.00808x elapsed=0:01:18.38    \nframe=   21 fps=0.3 q=30.4 size=       0KiB time=00:00:00.63 bitrate=   0.6kbits/s speed=0.00803x elapsed=0:01:18.91    \nframe=   22 fps=0.3 q=27.3 size=       0KiB time=00:00:00.66 bitrate=   0.5kbits/s speed=0.00839x elapsed=0:01:19.42    \nframe=   22 fps=0.3 q=27.3 size=       0KiB time=00:00:00.66 bitrate=   0.5kbits/s speed=0.00834x elapsed=0:01:19.93    \nframe=   22 fps=0.3 q=27.3 size=       0KiB time=00:00:00.66 bitrate=   0.5kbits/s speed=0.00829x elapsed=0:01:20.45    \nframe=   22 fps=0.3 q=27.3 size=       0KiB time=00:00:00.66 bitrate=   0.5kbits/s speed=0.00823x elapsed=0:01:20.97    \nframe=   22 fps=0.3 q=27.3 size=       0KiB time=00:00:00.66 bitrate=   0.5kbits/s speed=0.00818x elapsed=0:01:21.48    \nframe=   23 fps=0.3 q=30.5 size=       0KiB time=00:00:00.70 bitrate=   0.5kbits/s speed=0.00854x elapsed=0:01:22.00    \nframe=   23 fps=0.3 q=30.5 size=       0KiB time=00:00:00.70 bitrate=   0.5kbits/s speed=0.00848x elapsed=0:01:22.51    \nframe=   23 fps=0.3 q=30.5 size=       0KiB time=00:00:00.70 bitrate=   0.5kbits/s speed=0.00843x elapsed=0:01:23.04    \nframe=   23 fps=0.3 q=30.5 size=       0KiB time=00:00:00.70 bitrate=   0.5kbits/s speed=0.00838x elapsed=0:01:23.56    \nframe=   23 fps=0.3 q=30.5 size=       0KiB time=00:00:00.70 bitrate=   0.5kbits/s speed=0.00832x elapsed=0:01:24.12    \nframe=   23 fps=0.3 q=30.5 size=       0KiB time=00:00:00.70 bitrate=   0.5kbits/s speed=0.00827x elapsed=0:01:24.66    \nframe=   23 fps=0.3 q=30.5 size=       0KiB time=00:00:00.70 bitrate=   0.5kbits/s speed=0.00821x elapsed=0:01:25.25    \nframe=   23 fps=0.3 q=30.5 size=       0KiB time=00:00:00.70 bitrate=   0.5kbits/s speed=0.00816x elapsed=0:01:25.76    \nframe=   24 fps=0.3 q=27.2 size=       0KiB time=00:00:00.73 bitrate=   0.5kbits/s speed=0.0085x elapsed=0:01:26.29    \nframe=   24 fps=0.3 q=27.2 size=       0KiB time=00:00:00.73 bitrate=   0.5kbits/s speed=0.00845x elapsed=0:01:26.83    \nframe=   24 fps=0.3 q=27.2 size=       0KiB time=00:00:00.73 bitrate=   0.5kbits/s speed=0.0084x elapsed=0:01:27.35    \nframe=   24 fps=0.3 q=27.2 size=       0KiB time=00:00:00.73 bitrate=   0.5kbits/s speed=0.00834x elapsed=0:01:27.89    \nframe=   24 fps=0.3 q=27.2 size=       0KiB time=00:00:00.73 bitrate=   0.5kbits/s speed=0.00829x elapsed=0:01:28.43    \nframe=   24 fps=0.3 q=27.2 size=       0KiB time=00:00:00.73 bitrate=   0.5kbits/s speed=0.00824x elapsed=0:01:28.96    \nframe=   24 fps=0.3 q=27.2 size=       0KiB time=00:00:00.73 bitrate=   0.5kbits/s speed=0.00819x elapsed=0:01:29.50    \nframe=   24 fps=0.3 q=27.2 size=       0KiB time=00:00:00.73 bitrate=   0.5kbits/s speed=0.00815x elapsed=0:01:30.01    \nframe=   24 fps=0.3 q=27.2 size=       0KiB time=00:00:00.73 bitrate=   0.5kbits/s speed=0.0081x elapsed=0:01:30.53    \nframe=   25 fps=0.3 q=27.4 size=       0KiB time=00:00:00.76 bitrate=   0.5kbits/s speed=0.00842x elapsed=0:01:31.04    \nframe=   25 fps=0.3 q=27.4 size=       0KiB time=00:00:00.76 bitrate=   0.5kbits/s speed=0.00837x elapsed=0:01:31.56    \nframe=   25 fps=0.3 q=27.4 size=       0KiB time=00:00:00.76 bitrate=   0.5kbits/s speed=0.00833x elapsed=0:01:32.08    \nframe=   26 fps=0.3 q=30.2 size=       0KiB time=00:00:00.80 bitrate=   0.4kbits/s speed=0.00864x elapsed=0:01:32.59    \nframe=   26 fps=0.3 q=30.2 size=       0KiB time=00:00:00.80 bitrate=   0.4kbits/s speed=0.00859x elapsed=0:01:33.11    \nframe=   26 fps=0.3 q=30.2 size=       0KiB time=00:00:00.80 bitrate=   0.4kbits/s speed=0.00854x elapsed=0:01:33.63    \nframe=   26 fps=0.3 q=30.2 size=       0KiB time=00:00:00.80 bitrate=   0.4kbits/s speed=0.0085x elapsed=0:01:34.14    \nframe=   27 fps=0.3 q=27.3 size=     256KiB time=00:00:00.83 bitrate=2517.0kbits/s speed=0.0088x elapsed=0:01:34.65    \nframe=   27 fps=0.3 q=27.3 size=     256KiB time=00:00:00.83 bitrate=2517.0kbits/s speed=0.00876x elapsed=0:01:35.17    \nframe=   27 fps=0.3 q=27.3 size=     256KiB time=00:00:00.83 bitrate=2517.0kbits/s speed=0.00871x elapsed=0:01:35.69    \nframe=   28 fps=0.3 q=30.4 size=     256KiB time=00:00:00.86 bitrate=2420.2kbits/s speed=0.00901x elapsed=0:01:36.21    \nframe=   28 fps=0.3 q=30.4 size=     256KiB time=00:00:00.86 bitrate=2420.2kbits/s speed=0.00896x elapsed=0:01:36.71    \nframe=   28 fps=0.3 q=30.4 size=     256KiB time=00:00:00.86 bitrate=2420.2kbits/s speed=0.00891x elapsed=0:01:37.23    \nframe=   29 fps=0.3 q=27.7 size=     256KiB time=00:00:00.90 bitrate=2330.6kbits/s speed=0.00921x elapsed=0:01:37.75    \nframe=   29 fps=0.3 q=27.7 size=     256KiB time=00:00:00.90 bitrate=2330.6kbits/s speed=0.00916x elapsed=0:01:38.27    \nframe=   30 fps=0.3 q=29.9 size=     256KiB time=00:00:00.93 bitrate=2247.3kbits/s speed=0.00945x elapsed=0:01:38.79    \nframe=   30 fps=0.3 q=29.9 size=     256KiB time=00:00:00.93 bitrate=2247.3kbits/s speed=0.0094x elapsed=0:01:39.31    \nframe=   30 fps=0.3 q=29.9 size=     256KiB time=00:00:00.93 bitrate=2247.3kbits/s speed=0.00935x elapsed=0:01:39.82    \nframe=   30 fps=0.3 q=29.9 size=     256KiB time=00:00:00.93 bitrate=2247.3kbits/s speed=0.0093x elapsed=0:01:40.34    \nframe=   31 fps=0.3 q=30.9 size=     256KiB time=00:00:00.96 bitrate=2169.8kbits/s speed=0.00958x elapsed=0:01:40.86    \nframe=   31 fps=0.3 q=30.9 size=     256KiB time=00:00:00.96 bitrate=2169.8kbits/s speed=0.00954x elapsed=0:01:41.37    \nframe=   31 fps=0.3 q=30.9 size=     256KiB time=00:00:00.96 bitrate=2169.8kbits/s speed=0.00949x elapsed=0:01:41.89    \nframe=   31 fps=0.3 q=30.9 size=     256KiB time=00:00:00.96 bitrate=2169.8kbits/s speed=0.00944x elapsed=0:01:42.41    \nframe=   31 fps=0.3 q=30.9 size=     256KiB time=00:00:00.96 bitrate=2169.8kbits/s speed=0.00939x elapsed=0:01:42.92    \nframe=   32 fps=0.3 q=30.9 size=     256KiB time=00:00:01.00 bitrate=2097.5kbits/s speed=0.00967x elapsed=0:01:43.46    \nframe=   32 fps=0.3 q=30.9 size=     256KiB time=00:00:01.00 bitrate=2097.5kbits/s speed=0.00962x elapsed=0:01:43.98    \nframe=   32 fps=0.3 q=30.9 size=     256KiB time=00:00:01.00 bitrate=2097.5kbits/s speed=0.00957x elapsed=0:01:44.50    \nframe=   32 fps=0.3 q=30.9 size=     256KiB time=00:00:01.00 bitrate=2097.5kbits/s speed=0.00952x elapsed=0:01:45.03    \nframe=   32 fps=0.3 q=30.9 size=     256KiB time=00:00:01.00 bitrate=2097.5kbits/s speed=0.00947x elapsed=0:01:45.56    \nframe=   32 fps=0.3 q=30.9 size=     256KiB time=00:00:01.00 bitrate=2097.5kbits/s speed=0.00943x elapsed=0:01:46.08    \nframe=   32 fps=0.3 q=30.9 size=     256KiB time=00:00:01.00 bitrate=2097.5kbits/s speed=0.00938x elapsed=0:01:46.61    \nframe=   32 fps=0.3 q=30.9 size=     256KiB time=00:00:01.00 bitrate=2097.5kbits/s speed=0.00933x elapsed=0:01:47.13    \nframe=   32 fps=0.3 q=30.9 size=     256KiB time=00:00:01.00 bitrate=2097.5kbits/s speed=0.00929x elapsed=0:01:47.67    \nframe=   32 fps=0.3 q=30.9 size=     256KiB time=00:00:01.00 bitrate=2097.5kbits/s speed=0.00924x elapsed=0:01:48.18    \nframe=   32 fps=0.3 q=30.9 size=     256KiB time=00:00:01.00 bitrate=2097.5kbits/s speed=0.0092x elapsed=0:01:48.71    \nframe=   32 fps=0.3 q=30.9 size=     256KiB time=00:00:01.00 bitrate=2097.5kbits/s speed=0.00916x elapsed=0:01:49.22    \nframe=   33 fps=0.3 q=27.7 size=     256KiB time=00:00:01.03 bitrate=2029.8kbits/s speed=0.00942x elapsed=0:01:49.74    \nframe=   33 fps=0.3 q=27.7 size=     256KiB time=00:00:01.03 bitrate=2029.8kbits/s speed=0.00937x elapsed=0:01:50.27    \nframe=   33 fps=0.3 q=27.7 size=     256KiB time=00:00:01.03 bitrate=2029.8kbits/s speed=0.00933x elapsed=0:01:50.80    \nframe=   33 fps=0.3 q=27.7 size=     256KiB time=00:00:01.03 bitrate=2029.8kbits/s speed=0.00928x elapsed=0:01:51.32    \nframe=   33 fps=0.3 q=27.7 size=     256KiB time=00:00:01.03 bitrate=2029.8kbits/s speed=0.00924x elapsed=0:01:51.84    \nframe=   33 fps=0.3 q=27.7 size=     256KiB time=00:00:01.03 bitrate=2029.8kbits/s speed=0.0092x elapsed=0:01:52.36    \nframe=   33 fps=0.3 q=27.7 size=     256KiB time=00:00:01.03 bitrate=2029.8kbits/s speed=0.00915x elapsed=0:01:52.89    \nframe=   34 fps=0.3 q=30.7 size=     256KiB time=00:00:01.06 bitrate=1966.4kbits/s speed=0.0094x elapsed=0:01:53.41    \nframe=   34 fps=0.3 q=30.7 size=     256KiB time=00:00:01.06 bitrate=1966.4kbits/s speed=0.00936x elapsed=0:01:53.93    \nframe=   35 fps=0.3 q=27.2 size=     256KiB time=00:00:01.10 bitrate=1906.8kbits/s speed=0.00961x elapsed=0:01:54.45    \nframe=   35 fps=0.3 q=27.2 size=     256KiB time=00:00:01.10 bitrate=1906.8kbits/s speed=0.00957x elapsed=0:01:54.98    \nframe=   35 fps=0.3 q=27.2 size=     256KiB time=00:00:01.10 bitrate=1906.8kbits/s speed=0.00952x elapsed=0:01:55.51    \nframe=   36 fps=0.3 q=29.5 size=     256KiB time=00:00:01.13 bitrate=1850.7kbits/s speed=0.00977x elapsed=0:01:56.04    \nframe=   36 fps=0.3 q=29.5 size=     256KiB time=00:00:01.13 bitrate=1850.7kbits/s speed=0.00972x elapsed=0:01:56.58    \nframe=   36 fps=0.3 q=29.5 size=     256KiB time=00:00:01.13 bitrate=1850.7kbits/s speed=0.00968x elapsed=0:01:57.09    \nframe=   36 fps=0.3 q=29.5 size=     256KiB time=00:00:01.13 bitrate=1850.7kbits/s speed=0.00964x elapsed=0:01:57.61    \nframe=   36 fps=0.3 q=29.5 size=     256KiB time=00:00:01.13 bitrate=1850.7kbits/s speed=0.00959x elapsed=0:01:58.12    \nframe=   36 fps=0.3 q=29.5 size=     256KiB time=00:00:01.13 bitrate=1850.7kbits/s speed=0.00955x elapsed=0:01:58.65    \nframe=   36 fps=0.3 q=29.5 size=     256KiB time=00:00:01.13 bitrate=1850.7kbits/s speed=0.00951x elapsed=0:01:59.17    \nframe=   37 fps=0.3 q=31.4 size=     256KiB time=00:00:01.16 bitrate=1797.9kbits/s speed=0.00975x elapsed=0:01:59.68    \nframe=   37 fps=0.3 q=31.4 size=     256KiB time=00:00:01.16 bitrate=1797.9kbits/s speed=0.00971x elapsed=0:02:00.20    \nframe=   37 fps=0.3 q=31.4 size=     256KiB time=00:00:01.16 bitrate=1797.9kbits/s speed=0.00966x elapsed=0:02:00.72    \nframe=   37 fps=0.3 q=31.4 size=     256KiB time=00:00:01.16 bitrate=1797.9kbits/s speed=0.00962x elapsed=0:02:01.23    \nframe=   37 fps=0.3 q=31.4 size=     256KiB time=00:00:01.16 bitrate=1797.9kbits/s speed=0.00958x elapsed=0:02:01.75    \nframe=   38 fps=0.3 q=32.1 size=     256KiB time=00:00:01.20 bitrate=1747.9kbits/s speed=0.00981x elapsed=0:02:02.29    \nframe=   38 fps=0.3 q=32.1 size=     256KiB time=00:00:01.20 bitrate=1747.9kbits/s speed=0.00977x elapsed=0:02:02.84    \nframe=   38 fps=0.3 q=32.1 size=     256KiB time=00:00:01.20 bitrate=1747.9kbits/s speed=0.00973x elapsed=0:02:03.36    \nframe=   38 fps=0.3 q=32.1 size=     256KiB time=00:00:01.20 bitrate=1747.9kbits/s speed=0.00969x elapsed=0:02:03.88    \nframe=   39 fps=0.3 q=27.9 size=     256KiB time=00:00:01.23 bitrate=1700.7kbits/s speed=0.00991x elapsed=0:02:04.39    \nframe=   39 fps=0.3 q=27.9 size=     256KiB time=00:00:01.23 bitrate=1700.7kbits/s speed=0.00987x elapsed=0:02:04.90    \nframe=   39 fps=0.3 q=27.9 size=     256KiB time=00:00:01.23 bitrate=1700.7kbits/s speed=0.00983x elapsed=0:02:05.44    \nframe=   39 fps=0.3 q=27.9 size=     256KiB time=00:00:01.23 bitrate=1700.7kbits/s speed=0.00979x elapsed=0:02:05.95    \nframe=   40 fps=0.3 q=31.3 size=     256KiB time=00:00:01.26 bitrate=1655.9kbits/s speed=0.01x elapsed=0:02:06.48    \nframe=   40 fps=0.3 q=31.3 size=     256KiB time=00:00:01.26 bitrate=1655.9kbits/s speed=0.00997x elapsed=0:02:07.05    \nframe=   40 fps=0.3 q=31.3 size=     256KiB time=00:00:01.26 bitrate=1655.9kbits/s speed=0.00992x elapsed=0:02:07.66    \nframe=   40 fps=0.3 q=31.3 size=     256KiB time=00:00:01.26 bitrate=1655.9kbits/s speed=0.00987x elapsed=0:02:08.27    \nframe=   40 fps=0.3 q=31.3 size=     256KiB time=00:00:01.26 bitrate=1655.9kbits/s speed=0.00983x elapsed=0:02:08.89    \nframe=   40 fps=0.3 q=31.3 size=     256KiB time=00:00:01.26 bitrate=1655.9kbits/s speed=0.00978x elapsed=0:02:09.47    \nframe=   40 fps=0.3 q=31.3 size=     256KiB time=00:00:01.26 bitrate=1655.9kbits/s speed=0.00974x elapsed=0:02:10.05    \nframe=   40 fps=0.3 q=31.3 size=     256KiB time=00:00:01.26 bitrate=1655.9kbits/s speed=0.0097x elapsed=0:02:10.61    \nframe=   40 fps=0.3 q=31.3 size=     256KiB time=00:00:01.26 bitrate=1655.9kbits/s speed=0.00965x elapsed=0:02:11.19    \nframe=   40 fps=0.3 q=31.3 size=     256KiB time=00:00:01.26 bitrate=1655.9kbits/s speed=0.00961x elapsed=0:02:11.80    \nframe=   40 fps=0.3 q=31.3 size=     256KiB time=00:00:01.26 bitrate=1655.9kbits/s speed=0.00957x elapsed=0:02:12.38    \nframe=   40 fps=0.3 q=31.3 size=     256KiB time=00:00:01.26 bitrate=1655.9kbits/s speed=0.00953x elapsed=0:02:12.94    \nframe=   40 fps=0.3 q=31.3 size=     256KiB time=00:00:01.26 bitrate=1655.9kbits/s speed=0.00948x elapsed=0:02:13.55    \nframe=   41 fps=0.3 q=32.6 size=     256KiB time=00:00:01.30 bitrate=1613.5kbits/s speed=0.0097x elapsed=0:02:14.07    \nframe=   41 fps=0.3 q=32.6 size=     256KiB time=00:00:01.30 bitrate=1613.5kbits/s speed=0.00966x elapsed=0:02:14.61    \nframe=   41 fps=0.3 q=32.6 size=     256KiB time=00:00:01.30 bitrate=1613.5kbits/s speed=0.00962x elapsed=0:02:15.12    \nframe=   41 fps=0.3 q=32.6 size=     256KiB time=00:00:01.30 bitrate=1613.5kbits/s speed=0.00958x elapsed=0:02:15.64    \nframe=   41 fps=0.3 q=32.6 size=     256KiB time=00:00:01.30 bitrate=1613.5kbits/s speed=0.00954x elapsed=0:02:16.22    \nframe=   41 fps=0.3 q=32.6 size=     256KiB time=00:00:01.30 bitrate=1613.5kbits/s speed=0.0095x elapsed=0:02:16.77    \nframe=   41 fps=0.3 q=32.6 size=     256KiB time=00:00:01.30 bitrate=1613.5kbits/s speed=0.00947x elapsed=0:02:17.30    \nframe=   42 fps=0.3 q=32.8 size=     512KiB time=00:00:01.33 bitrate=3146.0kbits/s speed=0.00967x elapsed=0:02:17.82    \nframe=   42 fps=0.3 q=32.8 size=     512KiB time=00:00:01.33 bitrate=3146.0kbits/s speed=0.00964x elapsed=0:02:18.36    \nframe=   42 fps=0.3 q=32.8 size=     512KiB time=00:00:01.33 bitrate=3146.0kbits/s speed=0.0096x elapsed=0:02:18.88    \nframe=   42 fps=0.3 q=32.8 size=     512KiB time=00:00:01.33 bitrate=3146.0kbits/s speed=0.00957x elapsed=0:02:19.38    \nframe=   43 fps=0.3 q=28.2 size=     512KiB time=00:00:01.36 bitrate=3069.3kbits/s speed=0.00977x elapsed=0:02:19.92    \nframe=   43 fps=0.3 q=28.2 size=     512KiB time=00:00:01.36 bitrate=3069.3kbits/s speed=0.00973x elapsed=0:02:20.43    \nframe=   44 fps=0.3 q=30.5 size=     512KiB time=00:00:01.40 bitrate=2996.2kbits/s speed=0.00993x elapsed=0:02:20.95    \nframe=   44 fps=0.3 q=30.5 size=     512KiB time=00:00:01.40 bitrate=2996.2kbits/s speed=0.00989x elapsed=0:02:21.52    \nframe=   45 fps=0.3 q=32.5 size=     512KiB time=00:00:01.43 bitrate=2926.5kbits/s speed=0.0101x elapsed=0:02:22.02    \nframe=   45 fps=0.3 q=32.5 size=     512KiB time=00:00:01.43 bitrate=2926.5kbits/s speed=0.0101x elapsed=0:02:22.55    \nframe=   45 fps=0.3 q=32.5 size=     512KiB time=00:00:01.43 bitrate=2926.5kbits/s speed=0.01x elapsed=0:02:23.08    \nframe=   45 fps=0.3 q=32.5 size=     512KiB time=00:00:01.43 bitrate=2926.5kbits/s speed=0.00998x elapsed=0:02:23.59    \nframe=   46 fps=0.3 q=32.8 size=     512KiB time=00:00:01.46 bitrate=2860.0kbits/s speed=0.0102x elapsed=0:02:24.12    \nframe=   46 fps=0.3 q=32.8 size=     512KiB time=00:00:01.46 bitrate=2860.0kbits/s speed=0.0101x elapsed=0:02:24.70    \nframe=   46 fps=0.3 q=32.8 size=     512KiB time=00:00:01.46 bitrate=2860.0kbits/s speed=0.0101x elapsed=0:02:25.25    \nframe=   46 fps=0.3 q=32.8 size=     512KiB time=00:00:01.46 bitrate=2860.0kbits/s speed=0.0101x elapsed=0:02:25.77    \nframe=   46 fps=0.3 q=32.8 size=     512KiB time=00:00:01.46 bitrate=2860.0kbits/s speed=0.01x elapsed=0:02:26.30    \nframe=   46 fps=0.3 q=32.8 size=     512KiB time=00:00:01.46 bitrate=2860.0kbits/s speed=0.00999x elapsed=0:02:26.82    \nframe=   47 fps=0.3 q=32.5 size=     512KiB time=00:00:01.50 bitrate=2796.4kbits/s speed=0.0102x elapsed=0:02:27.35    \nframe=   47 fps=0.3 q=32.5 size=     512KiB time=00:00:01.50 bitrate=2796.4kbits/s speed=0.0101x elapsed=0:02:27.87    \nframe=   47 fps=0.3 q=32.5 size=     512KiB time=00:00:01.50 bitrate=2796.4kbits/s speed=0.0101x elapsed=0:02:28.43    \nframe=   48 fps=0.3 q=28.3 size=     512KiB time=00:00:01.53 bitrate=2735.6kbits/s speed=0.0103x elapsed=0:02:28.96    \nframe=   49 fps=0.3 q=31.5 size=     512KiB time=00:00:01.56 bitrate=2677.4kbits/s speed=0.0105x elapsed=0:02:29.48    \nframe=   49 fps=0.3 q=31.5 size=     512KiB time=00:00:01.56 bitrate=2677.4kbits/s speed=0.0104x elapsed=0:02:30.00    \nframe=   49 fps=0.3 q=31.5 size=     512KiB time=00:00:01.56 bitrate=2677.4kbits/s speed=0.0104x elapsed=0:02:30.53    \nframe=   50 fps=0.3 q=33.3 size=     512KiB time=00:00:01.60 bitrate=2621.7kbits/s speed=0.0106x elapsed=0:02:31.07    \nframe=   50 fps=0.3 q=33.3 size=     512KiB time=00:00:01.60 bitrate=2621.7kbits/s speed=0.0106x elapsed=0:02:31.60    \nframe=   50 fps=0.3 q=33.3 size=     512KiB time=00:00:01.60 bitrate=2621.7kbits/s speed=0.0105x elapsed=0:02:32.14    \nframe=   50 fps=0.3 q=33.3 size=     512KiB time=00:00:01.60 bitrate=2621.7kbits/s speed=0.0105x elapsed=0:02:32.68    \nframe=   50 fps=0.3 q=33.3 size=     512KiB time=00:00:01.60 bitrate=2621.7kbits/s speed=0.0104x elapsed=0:02:33.20    \nframe=   50 fps=0.3 q=33.3 size=     512KiB time=00:00:01.60 bitrate=2621.7kbits/s speed=0.0104x elapsed=0:02:33.73    \nframe=   51 fps=0.3 q=33.3 size=     512KiB time=00:00:01.63 bitrate=2568.2kbits/s speed=0.0106x elapsed=0:02:34.28    \nframe=   51 fps=0.3 q=33.3 size=     512KiB time=00:00:01.63 bitrate=2568.2kbits/s speed=0.0106x elapsed=0:02:34.80    \nframe=   51 fps=0.3 q=33.3 size=     512KiB time=00:00:01.63 bitrate=2568.2kbits/s speed=0.0105x elapsed=0:02:35.35    \nframe=   52 fps=0.3 q=28.5 size=     512KiB time=00:00:01.66 bitrate=2516.8kbits/s speed=0.0107x elapsed=0:02:35.91    \nframe=   52 fps=0.3 q=28.5 size=     512KiB time=00:00:01.66 bitrate=2516.8kbits/s speed=0.0107x elapsed=0:02:36.44    \nframe=   52 fps=0.3 q=28.5 size=     512KiB time=00:00:01.66 bitrate=2516.8kbits/s speed=0.0106x elapsed=0:02:36.97    \nframe=   52 fps=0.3 q=28.5 size=     512KiB time=00:00:01.66 bitrate=2516.8kbits/s speed=0.0106x elapsed=0:02:37.50    \nframe=   52 fps=0.3 q=28.5 size=     512KiB time=00:00:01.66 bitrate=2516.8kbits/s speed=0.0105x elapsed=0:02:38.02    \nframe=   52 fps=0.3 q=28.5 size=     512KiB time=00:00:01.66 bitrate=2516.8kbits/s speed=0.0105x elapsed=0:02:38.52    \nframe=   53 fps=0.3 q=31.1 size=     512KiB time=00:00:01.70 bitrate=2467.4kbits/s speed=0.0107x elapsed=0:02:39.05    \nframe=   53 fps=0.3 q=31.1 size=     512KiB time=00:00:01.70 bitrate=2467.4kbits/s speed=0.0107x elapsed=0:02:39.60    \nframe=   54 fps=0.3 q=32.8 size=     512KiB time=00:00:01.73 bitrate=2420.0kbits/s speed=0.0108x elapsed=0:02:40.10    \nframe=   54 fps=0.3 q=32.8 size=     512KiB time=00:00:01.73 bitrate=2420.0kbits/s speed=0.0108x elapsed=0:02:40.63    \nframe=   54 fps=0.3 q=32.8 size=     512KiB time=00:00:01.73 bitrate=2420.0kbits/s speed=0.0108x elapsed=0:02:41.13    \nframe=   54 fps=0.3 q=32.8 size=     512KiB time=00:00:01.73 bitrate=2420.0kbits/s speed=0.0107x elapsed=0:02:41.65    \nframe=   54 fps=0.3 q=32.8 size=     512KiB time=00:00:01.73 bitrate=2420.0kbits/s speed=0.0107x elapsed=0:02:42.17    \nframe=   54 fps=0.3 q=32.8 size=     512KiB time=00:00:01.73 bitrate=2420.0kbits/s speed=0.0107x elapsed=0:02:42.69    \nframe=   54 fps=0.3 q=32.8 size=     512KiB time=00:00:01.73 bitrate=2420.0kbits/s speed=0.0106x elapsed=0:02:43.22    \nframe=   54 fps=0.3 q=32.8 size=     512KiB time=00:00:01.73 bitrate=2420.0kbits/s speed=0.0106x elapsed=0:02:43.74    \nframe=   55 fps=0.3 q=33.3 size=     512KiB time=00:00:01.76 bitrate=2374.3kbits/s speed=0.0108x elapsed=0:02:44.26    \nframe=   55 fps=0.3 q=33.3 size=     512KiB time=00:00:01.76 bitrate=2374.3kbits/s speed=0.0107x elapsed=0:02:44.79    \nframe=   55 fps=0.3 q=33.3 size=     512KiB time=00:00:01.76 bitrate=2374.3kbits/s speed=0.0107x elapsed=0:02:45.32    \nframe=   55 fps=0.3 q=33.3 size=     512KiB time=00:00:01.76 bitrate=2374.3kbits/s speed=0.0107x elapsed=0:02:45.85    \nframe=   56 fps=0.3 q=33.1 size=     512KiB time=00:00:01.80 bitrate=2330.4kbits/s speed=0.0108x elapsed=0:02:46.37    \nframe=   56 fps=0.3 q=33.1 size=     512KiB time=00:00:01.80 bitrate=2330.4kbits/s speed=0.0108x elapsed=0:02:46.91    \nframe=   56 fps=0.3 q=33.1 size=     512KiB time=00:00:01.80 bitrate=2330.4kbits/s speed=0.0107x elapsed=0:02:47.48    \nframe=   56 fps=0.3 q=33.1 size=     512KiB time=00:00:01.80 bitrate=2330.4kbits/s speed=0.0107x elapsed=0:02:48.02    \nframe=   57 fps=0.3 q=28.6 size=     512KiB time=00:00:01.83 bitrate=2288.0kbits/s speed=0.0109x elapsed=0:02:48.54    \nframe=   57 fps=0.3 q=28.6 size=     512KiB time=00:00:01.83 bitrate=2288.0kbits/s speed=0.0108x elapsed=0:02:49.04    \nframe=   57 fps=0.3 q=28.6 size=     512KiB time=00:00:01.83 bitrate=2288.0kbits/s speed=0.0108x elapsed=0:02:49.57    \nframe=   57 fps=0.3 q=28.6 size=     512KiB time=00:00:01.83 bitrate=2288.0kbits/s speed=0.0108x elapsed=0:02:50.11    \nframe=   58 fps=0.3 q=30.9 size=     512KiB time=00:00:01.86 bitrate=2247.1kbits/s speed=0.0109x elapsed=0:02:50.64    \nframe=   58 fps=0.3 q=30.9 size=     512KiB time=00:00:01.86 bitrate=2247.1kbits/s speed=0.0109x elapsed=0:02:51.16    \nframe=   58 fps=0.3 q=30.9 size=     512KiB time=00:00:01.86 bitrate=2247.1kbits/s speed=0.0109x elapsed=0:02:51.67    \nframe=   58 fps=0.3 q=30.9 size=     512KiB time=00:00:01.86 bitrate=2247.1kbits/s speed=0.0108x elapsed=0:02:52.20    \nframe=   58 fps=0.3 q=30.9 size=     512KiB time=00:00:01.86 bitrate=2247.1kbits/s speed=0.0108x elapsed=0:02:52.72    \nframe=   58 fps=0.3 q=30.9 size=     512KiB time=00:00:01.86 bitrate=2247.1kbits/s speed=0.0108x elapsed=0:02:53.24    \nframe=   59 fps=0.3 q=32.6 size=     512KiB time=00:00:01.90 bitrate=2207.7kbits/s speed=0.0109x elapsed=0:02:53.76    \nframe=   60 fps=0.3 q=32.9 size=     768KiB time=00:00:01.93 bitrate=3254.4kbits/s speed=0.0111x elapsed=0:02:54.28    \nframe=   60 fps=0.3 q=32.9 size=     768KiB time=00:00:01.93 bitrate=3254.4kbits/s speed=0.0111x elapsed=0:02:54.79    \nframe=   61 fps=0.3 q=33.0 size=     768KiB time=00:00:01.96 bitrate=3199.2kbits/s speed=0.0112x elapsed=0:02:55.32    \nframe=   61 fps=0.3 q=33.0 size=     768KiB time=00:00:01.96 bitrate=3199.2kbits/s speed=0.0112x elapsed=0:02:55.85    \nframe=   61 fps=0.3 q=33.0 size=     768KiB time=00:00:01.96 bitrate=3199.2kbits/s speed=0.0111x elapsed=0:02:56.38    \nframe=   61 fps=0.3 q=33.0 size=     768KiB time=00:00:01.96 bitrate=3199.2kbits/s speed=0.0111x elapsed=0:02:56.91    \nframe=   62 fps=0.3 q=28.7 size=     768KiB time=00:00:02.00 bitrate=3145.9kbits/s speed=0.0113x elapsed=0:02:57.42    \nframe=   62 fps=0.3 q=28.7 size=     768KiB time=00:00:02.00 bitrate=3145.9kbits/s speed=0.0112x elapsed=0:02:57.94    \nframe=   62 fps=0.3 q=28.7 size=     768KiB time=00:00:02.00 bitrate=3145.9kbits/s speed=0.0112x elapsed=0:02:58.49    \nframe=   62 fps=0.3 q=28.7 size=     768KiB time=00:00:02.00 bitrate=3145.9kbits/s speed=0.0112x elapsed=0:02:59.05    \nframe=   62 fps=0.3 q=28.7 size=     768KiB time=00:00:02.00 bitrate=3145.9kbits/s speed=0.0111x elapsed=0:02:59.64    \nframe=   62 fps=0.3 q=28.7 size=     768KiB time=00:00:02.00 bitrate=3145.9kbits/s speed=0.0111x elapsed=0:03:00.16    \nframe=   63 fps=0.3 q=30.9 size=     768KiB time=00:00:02.03 bitrate=3094.3kbits/s speed=0.0113x elapsed=0:03:00.69    \nframe=   63 fps=0.3 q=30.9 size=     768KiB time=00:00:02.03 bitrate=3094.3kbits/s speed=0.0112x elapsed=0:03:01.23    \nframe=   63 fps=0.3 q=30.9 size=     768KiB time=00:00:02.03 bitrate=3094.3kbits/s speed=0.0112x elapsed=0:03:01.77    \nframe=   63 fps=0.3 q=30.9 size=     768KiB time=00:00:02.03 bitrate=3094.3kbits/s speed=0.0112x elapsed=0:03:02.29    \nframe=   64 fps=0.4 q=33.7 size=     768KiB time=00:00:02.03 bitrate=3094.3kbits/s speed=0.0111x elapsed=0:03:02.83    \nframe=   64 fps=0.3 q=33.7 size=     768KiB time=00:00:02.06 bitrate=3044.4kbits/s speed=0.0113x elapsed=0:03:03.37    \nframe=   64 fps=0.3 q=33.7 size=     768KiB time=00:00:02.06 bitrate=3044.4kbits/s speed=0.0112x elapsed=0:03:03.92    \nframe=   64 fps=0.3 q=33.7 size=     768KiB time=00:00:02.06 bitrate=3044.4kbits/s speed=0.0112x elapsed=0:03:04.44    \nframe=   65 fps=0.4 q=34.1 size=     768KiB time=00:00:02.10 bitrate=2996.1kbits/s speed=0.0114x elapsed=0:03:04.99    \nframe=   65 fps=0.4 q=34.1 size=     768KiB time=00:00:02.10 bitrate=2996.1kbits/s speed=0.0113x elapsed=0:03:05.58    \nframe=   65 fps=0.3 q=34.1 size=     768KiB time=00:00:02.10 bitrate=2996.1kbits/s speed=0.0113x elapsed=0:03:06.12    \nframe=   65 fps=0.3 q=34.1 size=     768KiB time=00:00:02.10 bitrate=2996.1kbits/s speed=0.0112x elapsed=0:03:06.67    \nframe=   65 fps=0.3 q=34.1 size=     768KiB time=00:00:02.10 bitrate=2996.1kbits/s speed=0.0112x elapsed=0:03:07.19    \nframe=   66 fps=0.4 q=34.4 size=     768KiB time=00:00:02.13 bitrate=2949.3kbits/s speed=0.0114x elapsed=0:03:07.70    \nframe=   66 fps=0.4 q=34.4 size=     768KiB time=00:00:02.13 bitrate=2949.3kbits/s speed=0.0113x elapsed=0:03:08.22    \nframe=   66 fps=0.3 q=34.4 size=     768KiB time=00:00:02.13 bitrate=2949.3kbits/s speed=0.0113x elapsed=0:03:08.76    \nframe=   66 fps=0.3 q=34.4 size=     768KiB time=00:00:02.13 bitrate=2949.3kbits/s speed=0.0113x elapsed=0:03:09.30    \nframe=   66 fps=0.3 q=34.4 size=     768KiB time=00:00:02.13 bitrate=2949.3kbits/s speed=0.0112x elapsed=0:03:09.83    \nframe=   66 fps=0.3 q=34.4 size=     768KiB time=00:00:02.13 bitrate=2949.3kbits/s speed=0.0112x elapsed=0:03:10.38    \nframe=   66 fps=0.3 q=34.4 size=     768KiB time=00:00:02.13 bitrate=2949.3kbits/s speed=0.0112x elapsed=0:03:10.90    \nframe=   67 fps=0.3 q=28.9 size=     768KiB time=00:00:02.16 bitrate=2903.9kbits/s speed=0.0113x elapsed=0:03:11.43    \nframe=   67 fps=0.3 q=28.9 size=     768KiB time=00:00:02.16 bitrate=2903.9kbits/s speed=0.0113x elapsed=0:03:11.95    \nframe=   67 fps=0.3 q=28.9 size=     768KiB time=00:00:02.16 bitrate=2903.9kbits/s speed=0.0113x elapsed=0:03:12.47    \nframe=   67 fps=0.3 q=28.9 size=     768KiB time=00:00:02.16 bitrate=2903.9kbits/s speed=0.0112x elapsed=0:03:13.01    \nframe=   67 fps=0.3 q=28.9 size=     768KiB time=00:00:02.16 bitrate=2903.9kbits/s speed=0.0112x elapsed=0:03:13.54    \nframe=   68 fps=0.4 q=32.1 size=     768KiB time=00:00:02.20 bitrate=2859.9kbits/s speed=0.0113x elapsed=0:03:14.07    \nframe=   68 fps=0.3 q=32.1 size=     768KiB time=00:00:02.20 bitrate=2859.9kbits/s speed=0.0113x elapsed=0:03:14.58    \nframe=   68 fps=0.3 q=32.1 size=     768KiB time=00:00:02.20 bitrate=2859.9kbits/s speed=0.0113x elapsed=0:03:15.11    \nframe=   68 fps=0.3 q=32.1 size=     768KiB time=00:00:02.20 bitrate=2859.9kbits/s speed=0.0112x elapsed=0:03:15.63    \nframe=   69 fps=0.4 q=33.5 size=     768KiB time=00:00:02.23 bitrate=2817.2kbits/s speed=0.0114x elapsed=0:03:16.14    \nframe=   69 fps=0.4 q=33.5 size=     768KiB time=00:00:02.23 bitrate=2817.2kbits/s speed=0.0114x elapsed=0:03:16.69    \nframe=   70 fps=0.4 q=33.7 size=     768KiB time=00:00:02.26 bitrate=2775.8kbits/s speed=0.0115x elapsed=0:03:17.20    \nframe=   70 fps=0.4 q=33.7 size=     768KiB time=00:00:02.26 bitrate=2775.8kbits/s speed=0.0115x elapsed=0:03:17.71    \nframe=   71 fps=0.4 q=34.0 size=     768KiB time=00:00:02.30 bitrate=2735.6kbits/s speed=0.0116x elapsed=0:03:18.23    \nframe=   71 fps=0.4 q=34.0 size=     768KiB time=00:00:02.30 bitrate=2735.6kbits/s speed=0.0116x elapsed=0:03:18.74    \nframe=   71 fps=0.4 q=34.0 size=     768KiB time=00:00:02.30 bitrate=2735.6kbits/s speed=0.0115x elapsed=0:03:19.28    \nframe=   71 fps=0.4 q=34.0 size=     768KiB time=00:00:02.30 bitrate=2735.6kbits/s speed=0.0115x elapsed=0:03:19.82    \nframe=   71 fps=0.4 q=34.0 size=     768KiB time=00:00:02.30 bitrate=2735.6kbits/s speed=0.0115x elapsed=0:03:20.39    \nframe=   71 fps=0.4 q=34.0 size=     768KiB time=00:00:02.30 bitrate=2735.6kbits/s speed=0.0114x elapsed=0:03:20.94    \nframe=   71 fps=0.4 q=34.0 size=     768KiB time=00:00:02.30 bitrate=2735.6kbits/s speed=0.0114x elapsed=0:03:21.52    \nframe=   71 fps=0.4 q=34.0 size=     768KiB time=00:00:02.30 bitrate=2735.6kbits/s speed=0.0114x elapsed=0:03:22.12    \nframe=   71 fps=0.4 q=34.0 size=     768KiB time=00:00:02.30 bitrate=2735.6kbits/s speed=0.0113x elapsed=0:03:22.71    \nframe=   72 fps=0.4 q=29.1 size=     768KiB time=00:00:02.33 bitrate=2696.5kbits/s speed=0.0115x elapsed=0:03:23.31    \nframe=   72 fps=0.4 q=29.1 size=     768KiB time=00:00:02.33 bitrate=2696.5kbits/s speed=0.0114x elapsed=0:03:23.91    \nframe=   73 fps=0.4 q=32.3 size=     768KiB time=00:00:02.36 bitrate=2658.5kbits/s speed=0.0116x elapsed=0:03:24.46    \nframe=   73 fps=0.4 q=32.3 size=     768KiB time=00:00:02.36 bitrate=2658.5kbits/s speed=0.0115x elapsed=0:03:24.98    \nframe=   73 fps=0.4 q=32.3 size=     768KiB time=00:00:02.36 bitrate=2658.5kbits/s speed=0.0115x elapsed=0:03:25.49    \nframe=   74 fps=0.4 q=33.9 size=     768KiB time=00:00:02.40 bitrate=2621.6kbits/s speed=0.0116x elapsed=0:03:26.03    \nframe=   74 fps=0.4 q=33.9 size=     768KiB time=00:00:02.40 bitrate=2621.6kbits/s speed=0.0116x elapsed=0:03:26.55    \nframe=   74 fps=0.4 q=33.9 size=     768KiB time=00:00:02.40 bitrate=2621.6kbits/s speed=0.0116x elapsed=0:03:27.07    \nframe=   74 fps=0.4 q=33.9 size=     768KiB time=00:00:02.40 bitrate=2621.6kbits/s speed=0.0116x elapsed=0:03:27.59    \nframe=   75 fps=0.4 q=33.9 size=     768KiB time=00:00:02.43 bitrate=2585.7kbits/s speed=0.0117x elapsed=0:03:28.10    \nframe=   75 fps=0.4 q=33.9 size=     768KiB time=00:00:02.43 bitrate=2585.7kbits/s speed=0.0117x elapsed=0:03:28.62    \nframe=   75 fps=0.4 q=33.9 size=     768KiB time=00:00:02.43 bitrate=2585.7kbits/s speed=0.0116x elapsed=0:03:29.15    \nframe=   75 fps=0.4 q=33.9 size=     768KiB time=00:00:02.43 bitrate=2585.7kbits/s speed=0.0116x elapsed=0:03:29.68    \nframe=   75 fps=0.4 q=33.9 size=     768KiB time=00:00:02.43 bitrate=2585.7kbits/s speed=0.0116x elapsed=0:03:30.22    \nframe=   75 fps=0.4 q=33.9 size=     768KiB time=00:00:02.43 bitrate=2585.7kbits/s speed=0.0115x elapsed=0:03:30.73    \nframe=   75 fps=0.4 q=33.9 size=     768KiB time=00:00:02.43 bitrate=2585.7kbits/s speed=0.0115x elapsed=0:03:31.26    \nframe=   76 fps=0.4 q=34.3 size=     768KiB time=00:00:02.46 bitrate=2550.7kbits/s speed=0.0116x elapsed=0:03:31.78    \nframe=   76 fps=0.4 q=34.3 size=     768KiB time=00:00:02.46 bitrate=2550.7kbits/s speed=0.0116x elapsed=0:03:32.31    \nframe=   76 fps=0.4 q=34.3 size=     768KiB time=00:00:02.46 bitrate=2550.7kbits/s speed=0.0116x elapsed=0:03:32.83    \nframe=   76 fps=0.4 q=34.3 size=     768KiB time=00:00:02.46 bitrate=2550.7kbits/s speed=0.0116x elapsed=0:03:33.36    \nframe=   77 fps=0.4 q=29.2 size=     768KiB time=00:00:02.50 bitrate=2516.7kbits/s speed=0.0117x elapsed=0:03:33.88    \nframe=   77 fps=0.4 q=29.2 size=     768KiB time=00:00:02.50 bitrate=2516.7kbits/s speed=0.0117x elapsed=0:03:34.41    \nframe=   77 fps=0.4 q=29.2 size=     768KiB time=00:00:02.50 bitrate=2516.7kbits/s speed=0.0116x elapsed=0:03:34.93    \nframe=   78 fps=0.4 q=31.2 size=     768KiB time=00:00:02.53 bitrate=2483.6kbits/s speed=0.0118x elapsed=0:03:35.46    \nframe=   78 fps=0.4 q=31.2 size=     768KiB time=00:00:02.53 bitrate=2483.6kbits/s speed=0.0117x elapsed=0:03:35.99    \nframe=   78 fps=0.4 q=31.2 size=     768KiB time=00:00:02.53 bitrate=2483.6kbits/s speed=0.0117x elapsed=0:03:36.52    \nframe=   78 fps=0.4 q=31.2 size=     768KiB time=00:00:02.53 bitrate=2483.6kbits/s speed=0.0117x elapsed=0:03:37.02    \nframe=   79 fps=0.4 q=34.1 size=     768KiB time=00:00:02.56 bitrate=2451.4kbits/s speed=0.0118x elapsed=0:03:37.54    \nframe=   79 fps=0.4 q=34.1 size=     768KiB time=00:00:02.56 bitrate=2451.4kbits/s speed=0.0118x elapsed=0:03:38.07    \nframe=   80 fps=0.4 q=34.3 size=     768KiB time=00:00:02.60 bitrate=2419.9kbits/s speed=0.0119x elapsed=0:03:38.57    \nframe=   80 fps=0.4 q=34.3 size=     768KiB time=00:00:02.60 bitrate=2419.9kbits/s speed=0.0119x elapsed=0:03:39.12    \nframe=   80 fps=0.4 q=34.3 size=     768KiB time=00:00:02.60 bitrate=2419.9kbits/s speed=0.0118x elapsed=0:03:39.64    \nframe=   80 fps=0.4 q=34.3 size=     768KiB time=00:00:02.60 bitrate=2419.9kbits/s speed=0.0118x elapsed=0:03:40.15    \nframe=   80 fps=0.4 q=34.3 size=     768KiB time=00:00:02.60 bitrate=2419.9kbits/s speed=0.0118x elapsed=0:03:40.68    \nframe=   81 fps=0.4 q=29.1 size=     768KiB time=00:00:02.63 bitrate=2389.3kbits/s speed=0.0119x elapsed=0:03:41.21    \nframe=   81 fps=0.4 q=29.1 size=     768KiB time=00:00:02.63 bitrate=2389.3kbits/s speed=0.0119x elapsed=0:03:41.75    \nframe=   82 fps=0.4 q=31.5 size=    1024KiB time=00:00:02.66 bitrate=3145.9kbits/s speed=0.012x elapsed=0:03:42.27    \nframe=   82 fps=0.4 q=31.5 size=    1024KiB time=00:00:02.66 bitrate=3145.9kbits/s speed=0.012x elapsed=0:03:42.79    \nframe=   82 fps=0.4 q=31.5 size=    1024KiB time=00:00:02.66 bitrate=3145.9kbits/s speed=0.0119x elapsed=0:03:43.31    \nframe=   83 fps=0.4 q=33.9 size=    1024KiB time=00:00:02.70 bitrate=3107.0kbits/s speed=0.0121x elapsed=0:03:43.85    \nframe=   83 fps=0.4 q=33.9 size=    1024KiB time=00:00:02.70 bitrate=3107.0kbits/s speed=0.012x elapsed=0:03:44.38    \nframe=   84 fps=0.4 q=34.0 size=    1024KiB time=00:00:02.73 bitrate=3069.1kbits/s speed=0.0122x elapsed=0:03:44.92    \nframe=   84 fps=0.4 q=34.0 size=    1024KiB time=00:00:02.73 bitrate=3069.1kbits/s speed=0.0121x elapsed=0:03:45.48    \nframe=   84 fps=0.4 q=34.0 size=    1024KiB time=00:00:02.73 bitrate=3069.1kbits/s speed=0.0121x elapsed=0:03:46.00    \nframe=   84 fps=0.4 q=34.0 size=    1024KiB time=00:00:02.73 bitrate=3069.1kbits/s speed=0.0121x elapsed=0:03:46.54    \nframe=   84 fps=0.4 q=34.0 size=    1024KiB time=00:00:02.73 bitrate=3069.1kbits/s speed=0.012x elapsed=0:03:47.05    \nframe=   84 fps=0.4 q=34.0 size=    1024KiB time=00:00:02.73 bitrate=3069.1kbits/s speed=0.012x elapsed=0:03:47.58    \nframe=   85 fps=0.4 q=34.2 size=    1024KiB time=00:00:02.76 bitrate=3032.2kbits/s speed=0.0121x elapsed=0:03:48.10    \nframe=   85 fps=0.4 q=34.2 size=    1024KiB time=00:00:02.76 bitrate=3032.2kbits/s speed=0.0121x elapsed=0:03:48.62    \nframe=   85 fps=0.4 q=34.2 size=    1024KiB time=00:00:02.76 bitrate=3032.2kbits/s speed=0.0121x elapsed=0:03:49.17    \nframe=   86 fps=0.4 q=29.3 size=    1024KiB time=00:00:02.76 bitrate=3032.2kbits/s speed=0.012x elapsed=0:03:49.69    \nframe=   86 fps=0.4 q=29.3 size=    1024KiB time=00:00:02.80 bitrate=2996.1kbits/s speed=0.0122x elapsed=0:03:50.23    \nframe=   86 fps=0.4 q=29.3 size=    1024KiB time=00:00:02.80 bitrate=2996.1kbits/s speed=0.0121x elapsed=0:03:50.78    \nframe=   86 fps=0.4 q=29.3 size=    1024KiB time=00:00:02.80 bitrate=2996.1kbits/s speed=0.0121x elapsed=0:03:51.30    \nframe=   86 fps=0.4 q=29.3 size=    1024KiB time=00:00:02.80 bitrate=2996.1kbits/s speed=0.0121x elapsed=0:03:51.82    \nframe=   86 fps=0.4 q=29.3 size=    1024KiB time=00:00:02.80 bitrate=2996.1kbits/s speed=0.0121x elapsed=0:03:52.34    \nframe=   87 fps=0.4 q=32.0 size=    1024KiB time=00:00:02.83 bitrate=2960.8kbits/s speed=0.0122x elapsed=0:03:52.89    \nframe=   87 fps=0.4 q=32.0 size=    1024KiB time=00:00:02.83 bitrate=2960.8kbits/s speed=0.0121x elapsed=0:03:53.42    \nframe=   87 fps=0.4 q=32.0 size=    1024KiB time=00:00:02.83 bitrate=2960.8kbits/s speed=0.0121x elapsed=0:03:53.98    \nframe=   87 fps=0.4 q=32.0 size=    1024KiB time=00:00:02.83 bitrate=2960.8kbits/s speed=0.0121x elapsed=0:03:54.50    \nframe=   87 fps=0.4 q=32.0 size=    1024KiB time=00:00:02.83 bitrate=2960.8kbits/s speed=0.0121x elapsed=0:03:55.07    \nframe=   87 fps=0.4 q=32.0 size=    1024KiB time=00:00:02.83 bitrate=2960.8kbits/s speed=0.012x elapsed=0:03:55.69    \nframe=   87 fps=0.4 q=32.0 size=    1024KiB time=00:00:02.83 bitrate=2960.8kbits/s speed=0.012x elapsed=0:03:56.31    \nframe=   87 fps=0.4 q=32.0 size=    1024KiB time=00:00:02.83 bitrate=2960.8kbits/s speed=0.012x elapsed=0:03:56.90    \nframe=   87 fps=0.4 q=32.0 size=    1024KiB time=00:00:02.83 bitrate=2960.8kbits/s speed=0.0119x elapsed=0:03:57.49    \nframe=   88 fps=0.4 q=34.0 size=    1024KiB time=00:00:02.86 bitrate=2926.4kbits/s speed=0.012x elapsed=0:03:58.01    \nframe=   88 fps=0.4 q=34.0 size=    1024KiB time=00:00:02.86 bitrate=2926.4kbits/s speed=0.012x elapsed=0:03:58.54    \nframe=   89 fps=0.4 q=34.2 size=    1024KiB time=00:00:02.90 bitrate=2892.7kbits/s speed=0.0121x elapsed=0:03:59.12    \nframe=   89 fps=0.4 q=34.2 size=    1024KiB time=00:00:02.90 bitrate=2892.7kbits/s speed=0.0121x elapsed=0:03:59.70    \nframe=   89 fps=0.4 q=34.2 size=    1024KiB time=00:00:02.90 bitrate=2892.7kbits/s speed=0.0121x elapsed=0:04:00.29    \nframe=   89 fps=0.4 q=34.2 size=    1024KiB time=00:00:02.90 bitrate=2892.7kbits/s speed=0.012x elapsed=0:04:00.86    \nframe=   89 fps=0.4 q=34.2 size=    1024KiB time=00:00:02.90 bitrate=2892.7kbits/s speed=0.012x elapsed=0:04:01.42    \nframe=   89 fps=0.4 q=34.2 size=    1024KiB time=00:00:02.90 bitrate=2892.7kbits/s speed=0.012x elapsed=0:04:01.94    \nframe=   89 fps=0.4 q=34.2 size=    1024KiB time=00:00:02.90 bitrate=2892.7kbits/s speed=0.012x elapsed=0:04:02.47    \nframe=   89 fps=0.4 q=34.2 size=    1024KiB time=00:00:02.90 bitrate=2892.7kbits/s speed=0.0119x elapsed=0:04:03.04    \nframe=   89 fps=0.4 q=34.2 size=    1024KiB time=00:00:02.90 bitrate=2892.7kbits/s speed=0.0119x elapsed=0:04:03.60    \nframe=   89 fps=0.4 q=34.2 size=    1024KiB time=00:00:02.90 bitrate=2892.7kbits/s speed=0.0119x elapsed=0:04:04.19    \nframe=   89 fps=0.4 q=34.2 size=    1024KiB time=00:00:02.90 bitrate=2892.7kbits/s speed=0.0118x elapsed=0:04:04.77    \nframe=   89 fps=0.4 q=34.2 size=    1024KiB time=00:00:02.90 bitrate=2892.7kbits/s speed=0.0118x elapsed=0:04:05.34    \nframe=   89 fps=0.4 q=34.2 size=    1024KiB time=00:00:02.90 bitrate=2892.7kbits/s speed=0.0118x elapsed=0:04:05.89    \nframe=   90 fps=0.4 q=29.2 size=    1024KiB time=00:00:02.93 bitrate=2859.9kbits/s speed=0.0119x elapsed=0:04:06.47    \nframe=   90 fps=0.4 q=29.2 size=    1024KiB time=00:00:02.93 bitrate=2859.9kbits/s speed=0.0119x elapsed=0:04:07.00    \nframe=   90 fps=0.4 q=29.2 size=    1024KiB time=00:00:02.93 bitrate=2859.9kbits/s speed=0.0119x elapsed=0:04:07.52    \nframe=   90 fps=0.4 q=29.2 size=    1024KiB time=00:00:02.93 bitrate=2859.9kbits/s speed=0.0118x elapsed=0:04:08.07    \nframe=   90 fps=0.4 q=29.2 size=    1024KiB time=00:00:02.93 bitrate=2859.9kbits/s speed=0.0118x elapsed=0:04:08.62    \nframe=   90 fps=0.4 q=29.2 size=    1024KiB time=00:00:02.93 bitrate=2859.9kbits/s speed=0.0118x elapsed=0:04:09.17    \nframe=   90 fps=0.4 q=29.2 size=    1024KiB time=00:00:02.93 bitrate=2859.9kbits/s speed=0.0117x elapsed=0:04:09.70    \nframe=   91 fps=0.4 q=31.3 size=    1024KiB time=00:00:02.96 bitrate=2827.7kbits/s speed=0.0119x elapsed=0:04:10.24    \nframe=   91 fps=0.4 q=31.3 size=    1024KiB time=00:00:02.96 bitrate=2827.7kbits/s speed=0.0118x elapsed=0:04:10.80    \nframe=   91 fps=0.4 q=31.3 size=    1024KiB time=00:00:02.96 bitrate=2827.7kbits/s speed=0.0118x elapsed=0:04:11.35    \nframe=   91 fps=0.4 q=31.3 size=    1024KiB time=00:00:02.96 bitrate=2827.7kbits/s speed=0.0118x elapsed=0:04:11.94    \nframe=   91 fps=0.4 q=31.3 size=    1024KiB time=00:00:02.96 bitrate=2827.7kbits/s speed=0.0117x elapsed=0:04:12.53    \nframe=   91 fps=0.4 q=31.3 size=    1024KiB time=00:00:02.96 bitrate=2827.7kbits/s speed=0.0117x elapsed=0:04:13.06    \nframe=   92 fps=0.4 q=34.1 size=    1024KiB time=00:00:03.00 bitrate=2796.3kbits/s speed=0.0118x elapsed=0:04:13.59    \nframe=   92 fps=0.4 q=34.1 size=    1024KiB time=00:00:03.00 bitrate=2796.3kbits/s speed=0.0118x elapsed=0:04:14.15    \nframe=   93 fps=0.4 q=34.2 size=    1024KiB time=00:00:03.03 bitrate=2765.6kbits/s speed=0.0119x elapsed=0:04:14.67    \nframe=   93 fps=0.4 q=34.2 size=    1024KiB time=00:00:03.03 bitrate=2765.6kbits/s speed=0.0119x elapsed=0:04:15.28    \nframe=   93 fps=0.4 q=34.2 size=    1024KiB time=00:00:03.03 bitrate=2765.6kbits/s speed=0.0119x elapsed=0:04:15.86    \nframe=   93 fps=0.4 q=34.2 size=    1024KiB time=00:00:03.03 bitrate=2765.6kbits/s speed=0.0118x elapsed=0:04:16.39    \nframe=   93 fps=0.4 q=34.2 size=    1024KiB time=00:00:03.03 bitrate=2765.6kbits/s speed=0.0118x elapsed=0:04:16.93    \nframe=   93 fps=0.4 q=34.2 size=    1024KiB time=00:00:03.03 bitrate=2765.6kbits/s speed=0.0118x elapsed=0:04:17.47    \nframe=   93 fps=0.4 q=34.2 size=    1024KiB time=00:00:03.03 bitrate=2765.6kbits/s speed=0.0118x elapsed=0:04:18.06    \nframe=   93 fps=0.4 q=34.2 size=    1024KiB time=00:00:03.03 bitrate=2765.6kbits/s speed=0.0117x elapsed=0:04:18.69    \nframe=   93 fps=0.4 q=34.2 size=    1024KiB time=00:00:03.03 bitrate=2765.6kbits/s speed=0.0117x elapsed=0:04:19.29    \nframe=   93 fps=0.4 q=34.2 size=    1024KiB time=00:00:03.03 bitrate=2765.6kbits/s speed=0.0117x elapsed=0:04:19.92    \nframe=   93 fps=0.4 q=34.2 size=    1024KiB time=00:00:03.03 bitrate=2765.6kbits/s speed=0.0116x elapsed=0:04:20.53    \nframe=   93 fps=0.4 q=34.2 size=    1024KiB time=00:00:03.03 bitrate=2765.6kbits/s speed=0.0116x elapsed=0:04:21.07    \nframe=   94 fps=0.4 q=33.9 size=    1024KiB time=00:00:03.03 bitrate=2765.6kbits/s speed=0.0116x elapsed=0:04:21.68    \nframe=   94 fps=0.4 q=33.9 size=    1024KiB time=00:00:03.06 bitrate=2735.5kbits/s speed=0.0117x elapsed=0:04:22.23    \nframe=   94 fps=0.4 q=33.9 size=    1024KiB time=00:00:03.06 bitrate=2735.5kbits/s speed=0.0117x elapsed=0:04:22.77    \nframe=   94 fps=0.4 q=33.9 size=    1024KiB time=00:00:03.06 bitrate=2735.5kbits/s speed=0.0116x elapsed=0:04:23.30    \nframe=   94 fps=0.4 q=33.9 size=    1024KiB time=00:00:03.06 bitrate=2735.5kbits/s speed=0.0116x elapsed=0:04:23.86    \nframe=   94 fps=0.4 q=33.9 size=    1024KiB time=00:00:03.06 bitrate=2735.5kbits/s speed=0.0116x elapsed=0:04:24.43    \nframe=   95 fps=0.4 q=29.3 size=    1024KiB time=00:00:03.10 bitrate=2706.1kbits/s speed=0.0117x elapsed=0:04:25.04    \nframe=   96 fps=0.4 q=31.2 size=    1024KiB time=00:00:03.13 bitrate=2677.3kbits/s speed=0.0118x elapsed=0:04:25.56    \nframe=   96 fps=0.4 q=31.2 size=    1024KiB time=00:00:03.13 bitrate=2677.3kbits/s speed=0.0118x elapsed=0:04:26.08    \nframe=   96 fps=0.4 q=31.2 size=    1024KiB time=00:00:03.13 bitrate=2677.3kbits/s speed=0.0118x elapsed=0:04:26.63    \nframe=   96 fps=0.4 q=31.2 size=    1024KiB time=00:00:03.13 bitrate=2677.3kbits/s speed=0.0117x elapsed=0:04:27.15    \nframe=   96 fps=0.4 q=31.2 size=    1024KiB time=00:00:03.13 bitrate=2677.3kbits/s speed=0.0117x elapsed=0:04:27.68    \nframe=   96 fps=0.4 q=31.2 size=    1024KiB time=00:00:03.13 bitrate=2677.3kbits/s speed=0.0117x elapsed=0:04:28.25    \nframe=   97 fps=0.4 q=33.6 size=    1024KiB time=00:00:03.16 bitrate=2649.1kbits/s speed=0.0118x elapsed=0:04:28.78    \nframe=   97 fps=0.4 q=33.6 size=    1024KiB time=00:00:03.16 bitrate=2649.1kbits/s speed=0.0118x elapsed=0:04:29.30    \nframe=   98 fps=0.4 q=33.8 size=    1024KiB time=00:00:03.20 bitrate=2621.6kbits/s speed=0.0119x elapsed=0:04:29.85    \nframe=   98 fps=0.4 q=33.8 size=    1024KiB time=00:00:03.20 bitrate=2621.6kbits/s speed=0.0118x elapsed=0:04:30.37    \nframe=   99 fps=0.4 q=33.7 size=    1024KiB time=00:00:03.23 bitrate=2594.5kbits/s speed=0.0119x elapsed=0:04:30.91    \nframe=   99 fps=0.4 q=33.7 size=    1024KiB time=00:00:03.23 bitrate=2594.5kbits/s speed=0.0119x elapsed=0:04:31.43    \nframe=   99 fps=0.4 q=33.7 size=    1024KiB time=00:00:03.23 bitrate=2594.5kbits/s speed=0.0119x elapsed=0:04:31.96    \nframe=   99 fps=0.4 q=33.7 size=    1024KiB time=00:00:03.23 bitrate=2594.5kbits/s speed=0.0119x elapsed=0:04:32.52    \nframe=   99 fps=0.4 q=33.7 size=    1024KiB time=00:00:03.23 bitrate=2594.5kbits/s speed=0.0118x elapsed=0:04:33.07    \nframe=  100 fps=0.4 q=29.4 size=    1024KiB time=00:00:03.26 bitrate=2568.0kbits/s speed=0.0119x elapsed=0:04:33.59    \nframe=  100 fps=0.4 q=29.4 size=    1024KiB time=00:00:03.26 bitrate=2568.0kbits/s speed=0.0119x elapsed=0:04:34.16    \nframe=  100 fps=0.4 q=29.4 size=    1024KiB time=00:00:03.26 bitrate=2568.0kbits/s speed=0.0119x elapsed=0:04:34.68    \nframe=  100 fps=0.4 q=29.4 size=    1024KiB time=00:00:03.26 bitrate=2568.0kbits/s speed=0.0119x elapsed=0:04:35.21    \nframe=  100 fps=0.4 q=29.4 size=    1024KiB time=00:00:03.26 bitrate=2568.0kbits/s speed=0.0118x elapsed=0:04:35.76    \nframe=  101 fps=0.4 q=32.2 size=    1024KiB time=00:00:03.30 bitrate=2542.1kbits/s speed=0.0119x elapsed=0:04:36.28    \nframe=  101 fps=0.4 q=32.2 size=    1024KiB time=00:00:03.30 bitrate=2542.1kbits/s speed=0.0119x elapsed=0:04:36.80    \nframe=  101 fps=0.4 q=32.2 size=    1024KiB time=00:00:03.30 bitrate=2542.1kbits/s speed=0.0119x elapsed=0:04:37.32    \nframe=  101 fps=0.4 q=32.2 size=    1024KiB time=00:00:03.30 bitrate=2542.1kbits/s speed=0.0119x elapsed=0:04:37.84    \nframe=  101 fps=0.4 q=32.2 size=    1024KiB time=00:00:03.30 bitrate=2542.1kbits/s speed=0.0119x elapsed=0:04:38.35    \nframe=  102 fps=0.4 q=34.1 size=    1024KiB time=00:00:03.33 bitrate=2516.7kbits/s speed=0.012x elapsed=0:04:38.87    \nframe=  102 fps=0.4 q=34.1 size=    1024KiB time=00:00:03.33 bitrate=2516.7kbits/s speed=0.0119x elapsed=0:04:39.41    \nframe=  103 fps=0.4 q=34.0 size=    1280KiB time=00:00:03.36 bitrate=3114.7kbits/s speed=0.012x elapsed=0:04:39.91    \nframe=  103 fps=0.4 q=34.0 size=    1280KiB time=00:00:03.36 bitrate=3114.7kbits/s speed=0.012x elapsed=0:04:40.44    \nframe=  103 fps=0.4 q=34.0 size=    1280KiB time=00:00:03.36 bitrate=3114.7kbits/s speed=0.012x elapsed=0:04:40.96    \nframe=  103 fps=0.4 q=34.0 size=    1280KiB time=00:00:03.36 bitrate=3114.7kbits/s speed=0.012x elapsed=0:04:41.48    \nframe=  103 fps=0.4 q=34.0 size=    1280KiB time=00:00:03.36 bitrate=3114.7kbits/s speed=0.0119x elapsed=0:04:41.99    \nframe=  103 fps=0.4 q=34.0 size=    1280KiB time=00:00:03.36 bitrate=3114.7kbits/s speed=0.0119x elapsed=0:04:42.54    \nframe=  104 fps=0.4 q=29.4 size=    1280KiB time=00:00:03.40 bitrate=3084.2kbits/s speed=0.012x elapsed=0:04:43.08    \nframe=  104 fps=0.4 q=29.4 size=    1280KiB time=00:00:03.40 bitrate=3084.2kbits/s speed=0.012x elapsed=0:04:43.61    \nframe=  104 fps=0.4 q=29.4 size=    1280KiB time=00:00:03.40 bitrate=3084.2kbits/s speed=0.012x elapsed=0:04:44.15    \nframe=  104 fps=0.4 q=29.4 size=    1280KiB time=00:00:03.40 bitrate=3084.2kbits/s speed=0.0119x elapsed=0:04:44.68    \nframe=  104 fps=0.4 q=29.4 size=    1280KiB time=00:00:03.40 bitrate=3084.2kbits/s speed=0.0119x elapsed=0:04:45.22    \nframe=  104 fps=0.4 q=29.4 size=    1280KiB time=00:00:03.40 bitrate=3084.2kbits/s speed=0.0119x elapsed=0:04:45.77    \nframe=  104 fps=0.4 q=29.4 size=    1280KiB time=00:00:03.40 bitrate=3084.2kbits/s speed=0.0119x elapsed=0:04:46.32    \nframe=  104 fps=0.4 q=29.4 size=    1280KiB time=00:00:03.40 bitrate=3084.2kbits/s speed=0.0119x elapsed=0:04:46.85    \nframe=  105 fps=0.4 q=31.4 size=    1280KiB time=00:00:03.43 bitrate=3054.2kbits/s speed=0.0119x elapsed=0:04:47.38    \nframe=  105 fps=0.4 q=31.4 size=    1280KiB time=00:00:03.43 bitrate=3054.2kbits/s speed=0.0119x elapsed=0:04:47.89    \nframe=  105 fps=0.4 q=31.4 size=    1280KiB time=00:00:03.43 bitrate=3054.2kbits/s speed=0.0119x elapsed=0:04:48.41    \nframe=  105 fps=0.4 q=31.4 size=    1280KiB time=00:00:03.43 bitrate=3054.2kbits/s speed=0.0119x elapsed=0:04:48.95    \nframe=  105 fps=0.4 q=31.4 size=    1280KiB time=00:00:03.43 bitrate=3054.2kbits/s speed=0.0119x elapsed=0:04:49.48    \nframe=  105 fps=0.4 q=31.4 size=    1280KiB time=00:00:03.43 bitrate=3054.2kbits/s speed=0.0118x elapsed=0:04:50.00    \nframe=  105 fps=0.4 q=31.4 size=    1280KiB time=00:00:03.43 bitrate=3054.2kbits/s speed=0.0118x elapsed=0:04:50.53    \nframe=  106 fps=0.4 q=33.5 size=    1280KiB time=00:00:03.46 bitrate=3024.8kbits/s speed=0.0119x elapsed=0:04:51.05    \nframe=  106 fps=0.4 q=33.5 size=    1280KiB time=00:00:03.46 bitrate=3024.8kbits/s speed=0.0119x elapsed=0:04:51.59    \nframe=  106 fps=0.4 q=33.5 size=    1280KiB time=00:00:03.46 bitrate=3024.8kbits/s speed=0.0119x elapsed=0:04:52.15    \nframe=  106 fps=0.4 q=33.5 size=    1280KiB time=00:00:03.46 bitrate=3024.8kbits/s speed=0.0118x elapsed=0:04:52.69    \nframe=  106 fps=0.4 q=33.5 size=    1280KiB time=00:00:03.46 bitrate=3024.8kbits/s speed=0.0118x elapsed=0:04:53.22    \nframe=  106 fps=0.4 q=33.5 size=    1280KiB time=00:00:03.46 bitrate=3024.8kbits/s speed=0.0118x elapsed=0:04:53.75    \nframe=  107 fps=0.4 q=33.6 size=    1280KiB time=00:00:03.50 bitrate=2996.0kbits/s speed=0.0119x elapsed=0:04:54.28    \nframe=  107 fps=0.4 q=33.6 size=    1280KiB time=00:00:03.50 bitrate=2996.0kbits/s speed=0.0119x elapsed=0:04:54.82    \nframe=  107 fps=0.4 q=33.6 size=    1280KiB time=00:00:03.50 bitrate=2996.0kbits/s speed=0.0118x elapsed=0:04:55.38    \nframe=  107 fps=0.4 q=33.6 size=    1280KiB time=00:00:03.50 bitrate=2996.0kbits/s speed=0.0118x elapsed=0:04:55.91    \nframe=  108 fps=0.4 q=29.3 size=    1280KiB time=00:00:03.53 bitrate=2967.8kbits/s speed=0.0119x elapsed=0:04:56.43    \nframe=  108 fps=0.4 q=29.3 size=    1280KiB time=00:00:03.53 bitrate=2967.8kbits/s speed=0.0119x elapsed=0:04:56.97    \nframe=  108 fps=0.4 q=29.3 size=    1280KiB time=00:00:03.53 bitrate=2967.8kbits/s speed=0.0119x elapsed=0:04:57.49    \nframe=  108 fps=0.4 q=29.3 size=    1280KiB time=00:00:03.53 bitrate=2967.8kbits/s speed=0.0119x elapsed=0:04:58.02    \nframe=  108 fps=0.4 q=29.3 size=    1280KiB time=00:00:03.53 bitrate=2967.8kbits/s speed=0.0118x elapsed=0:04:58.54    \nframe=  108 fps=0.4 q=29.3 size=    1280KiB time=00:00:03.53 bitrate=2967.8kbits/s speed=0.0118x elapsed=0:04:59.08    \nframe=  109 fps=0.4 q=31.4 size=    1280KiB time=00:00:03.56 bitrate=2940.0kbits/s speed=0.0119x elapsed=0:04:59.60    \nframe=  109 fps=0.4 q=31.4 size=    1280KiB time=00:00:03.56 bitrate=2940.0kbits/s speed=0.0119x elapsed=0:05:00.12    \nframe=  109 fps=0.4 q=31.4 size=    1280KiB time=00:00:03.56 bitrate=2940.0kbits/s speed=0.0119x elapsed=0:05:00.65    \nframe=  109 fps=0.4 q=31.4 size=    1280KiB time=00:00:03.56 bitrate=2940.0kbits/s speed=0.0118x elapsed=0:05:01.17    \nframe=  110 fps=0.4 q=33.6 size=    1280KiB time=00:00:03.60 bitrate=2912.8kbits/s speed=0.0119x elapsed=0:05:01.68    \nframe=  111 fps=0.4 q=33.7 size=    1280KiB time=00:00:03.63 bitrate=2886.1kbits/s speed=0.012x elapsed=0:05:02.22    \nframe=  111 fps=0.4 q=33.7 size=    1280KiB time=00:00:03.63 bitrate=2886.1kbits/s speed=0.012x elapsed=0:05:02.76    \nframe=  111 fps=0.4 q=33.7 size=    1280KiB time=00:00:03.63 bitrate=2886.1kbits/s speed=0.012x elapsed=0:05:03.32    \nframe=  112 fps=0.4 q=29.4 size=    1280KiB time=00:00:03.66 bitrate=2859.8kbits/s speed=0.0121x elapsed=0:05:03.86    \nframe=  112 fps=0.4 q=29.4 size=    1280KiB time=00:00:03.66 bitrate=2859.8kbits/s speed=0.012x elapsed=0:05:04.39    \nframe=  113 fps=0.4 q=31.5 size=    1280KiB time=00:00:03.70 bitrate=2834.1kbits/s speed=0.0121x elapsed=0:05:04.91    \nframe=  113 fps=0.4 q=31.5 size=    1280KiB time=00:00:03.70 bitrate=2834.1kbits/s speed=0.0121x elapsed=0:05:05.44    \nframe=  113 fps=0.4 q=31.5 size=    1280KiB time=00:00:03.70 bitrate=2834.1kbits/s speed=0.0121x elapsed=0:05:05.97    \nframe=  113 fps=0.4 q=31.5 size=    1280KiB time=00:00:03.70 bitrate=2834.1kbits/s speed=0.0121x elapsed=0:05:06.51    \nframe=  114 fps=0.4 q=34.0 size=    1280KiB time=00:00:03.73 bitrate=2808.8kbits/s speed=0.0122x elapsed=0:05:07.03    \nframe=  114 fps=0.4 q=34.0 size=    1280KiB time=00:00:03.73 bitrate=2808.8kbits/s speed=0.0121x elapsed=0:05:07.57    \nframe=  114 fps=0.4 q=34.0 size=    1280KiB time=00:00:03.73 bitrate=2808.8kbits/s speed=0.0121x elapsed=0:05:08.10    \nframe=  115 fps=0.4 q=34.0 size=    1280KiB time=00:00:03.76 bitrate=2783.9kbits/s speed=0.0122x elapsed=0:05:08.62    \nframe=  116 fps=0.4 q=29.4 size=    1280KiB time=00:00:03.80 bitrate=2759.5kbits/s speed=0.0123x elapsed=0:05:09.13    \nframe=  116 fps=0.4 q=29.4 size=    1280KiB time=00:00:03.80 bitrate=2759.5kbits/s speed=0.0123x elapsed=0:05:09.65    \nframe=  116 fps=0.4 q=29.4 size=    1280KiB time=00:00:03.80 bitrate=2759.5kbits/s speed=0.0123x elapsed=0:05:10.18    \nframe=  116 fps=0.4 q=29.4 size=    1280KiB time=00:00:03.80 bitrate=2759.5kbits/s speed=0.0122x elapsed=0:05:10.75    \nframe=  116 fps=0.4 q=29.4 size=    1280KiB time=00:00:03.80 bitrate=2759.5kbits/s speed=0.0122x elapsed=0:05:11.29    \nframe=  117 fps=0.4 q=31.6 size=    1280KiB time=00:00:03.83 bitrate=2735.5kbits/s speed=0.0123x elapsed=0:05:11.82    \nframe=  117 fps=0.4 q=31.6 size=    1280KiB time=00:00:03.83 bitrate=2735.5kbits/s speed=0.0123x elapsed=0:05:12.34    \nframe=  117 fps=0.4 q=31.6 size=    1280KiB time=00:00:03.83 bitrate=2735.5kbits/s speed=0.0123x elapsed=0:05:12.85    \nframe=  117 fps=0.4 q=31.6 size=    1280KiB time=00:00:03.83 bitrate=2735.5kbits/s speed=0.0122x elapsed=0:05:13.39    \nframe=  118 fps=0.4 q=33.7 size=    1280KiB time=00:00:03.86 bitrate=2711.9kbits/s speed=0.0123x elapsed=0:05:13.93    \nframe=  119 fps=0.4 q=33.9 size=    1280KiB time=00:00:03.90 bitrate=2688.7kbits/s speed=0.0124x elapsed=0:05:14.48    \nframe=  119 fps=0.4 q=33.9 size=    1280KiB time=00:00:03.90 bitrate=2688.7kbits/s speed=0.0124x elapsed=0:05:15.00    \nframe=  119 fps=0.4 q=33.9 size=    1280KiB time=00:00:03.90 bitrate=2688.7kbits/s speed=0.0124x elapsed=0:05:15.53    \nframe=  120 fps=0.4 q=29.4 size=    1280KiB time=00:00:03.93 bitrate=2666.0kbits/s speed=0.0124x elapsed=0:05:16.09    \nframe=  120 fps=0.4 q=29.4 size=    1280KiB time=00:00:03.93 bitrate=2666.0kbits/s speed=0.0124x elapsed=0:05:16.66    \nframe=  120 fps=0.4 q=29.4 size=    1280KiB time=00:00:03.93 bitrate=2666.0kbits/s speed=0.0124x elapsed=0:05:17.16    \nframe=  120 fps=0.4 q=29.4 size=    1280KiB time=00:00:03.93 bitrate=2666.0kbits/s speed=0.0124x elapsed=0:05:17.70    \nframe=  120 fps=0.4 q=29.4 size=    1280KiB time=00:00:03.93 bitrate=2666.0kbits/s speed=0.0124x elapsed=0:05:18.26    \nframe=  120 fps=0.4 q=29.4 size=    1280KiB time=00:00:03.93 bitrate=2666.0kbits/s speed=0.0123x elapsed=0:05:18.83    \nframe=  120 fps=0.4 q=29.4 size=    1280KiB time=00:00:03.93 bitrate=2666.0kbits/s speed=0.0123x elapsed=0:05:19.36    \nframe=  120 fps=0.4 q=29.4 size=    1280KiB time=00:00:03.93 bitrate=2666.0kbits/s speed=0.0123x elapsed=0:05:19.91    \nframe=  120 fps=0.4 q=29.4 size=    1280KiB time=00:00:03.93 bitrate=2666.0kbits/s speed=0.0123x elapsed=0:05:20.49    \nframe=  120 fps=0.4 q=29.4 size=    1280KiB time=00:00:03.93 bitrate=2666.0kbits/s speed=0.0123x elapsed=0:05:21.05    \nframe=  120 fps=0.4 q=29.4 size=    1280KiB time=00:00:03.93 bitrate=2666.0kbits/s speed=0.0122x elapsed=0:05:21.67    \nframe=  120 fps=0.4 q=29.4 size=    1280KiB time=00:00:03.93 bitrate=2666.0kbits/s speed=0.0122x elapsed=0:05:22.22    \nframe=  120 fps=0.4 q=29.4 size=    1280KiB time=00:00:03.93 bitrate=2666.0kbits/s speed=0.0122x elapsed=0:05:22.86    \nframe=  120 fps=0.4 q=29.4 size=    1280KiB time=00:00:03.93 bitrate=2666.0kbits/s speed=0.0122x elapsed=0:05:23.52    \nframe=  121 fps=0.4 q=31.7 size=    1280KiB time=00:00:03.96 bitrate=2643.6kbits/s speed=0.0122x elapsed=0:05:24.11    \nframe=  121 fps=0.4 q=31.7 size=    1280KiB time=00:00:03.96 bitrate=2643.6kbits/s speed=0.0122x elapsed=0:05:24.68    \nframe=  121 fps=0.4 q=31.7 size=    1280KiB time=00:00:03.96 bitrate=2643.6kbits/s speed=0.0122x elapsed=0:05:25.29    \nframe=  121 fps=0.4 q=31.7 size=    1280KiB time=00:00:03.96 bitrate=2643.6kbits/s speed=0.0122x elapsed=0:05:25.81    \nframe=  121 fps=0.4 q=31.7 size=    1280KiB time=00:00:03.96 bitrate=2643.6kbits/s speed=0.0122x elapsed=0:05:26.34    \nframe=  121 fps=0.4 q=31.7 size=    1280KiB time=00:00:03.96 bitrate=2643.6kbits/s speed=0.0121x elapsed=0:05:26.99    \nframe=  121 fps=0.4 q=31.7 size=    1280KiB time=00:00:03.96 bitrate=2643.6kbits/s speed=0.0121x elapsed=0:05:27.54    \nframe=  121 fps=0.4 q=31.7 size=    1280KiB time=00:00:03.96 bitrate=2643.6kbits/s speed=0.0121x elapsed=0:05:28.05    \nframe=  121 fps=0.4 q=31.7 size=    1280KiB time=00:00:03.96 bitrate=2643.6kbits/s speed=0.0121x elapsed=0:05:28.62    \nframe=  122 fps=0.4 q=34.0 size=    1280KiB time=00:00:04.00 bitrate=2621.5kbits/s speed=0.0122x elapsed=0:05:29.14    \nframe=  122 fps=0.4 q=34.0 size=    1280KiB time=00:00:04.00 bitrate=2621.5kbits/s speed=0.0121x elapsed=0:05:29.70    \nframe=  122 fps=0.4 q=34.0 size=    1280KiB time=00:00:04.00 bitrate=2621.5kbits/s speed=0.0121x elapsed=0:05:30.24    \nframe=  122 fps=0.4 q=34.0 size=    1280KiB time=00:00:04.00 bitrate=2621.5kbits/s speed=0.0121x elapsed=0:05:30.76    \nframe=  122 fps=0.4 q=34.0 size=    1280KiB time=00:00:04.00 bitrate=2621.5kbits/s speed=0.0121x elapsed=0:05:31.31    \nframe=  123 fps=0.4 q=34.1 size=    1536KiB time=00:00:04.03 bitrate=3119.8kbits/s speed=0.0122x elapsed=0:05:31.84    \nframe=  123 fps=0.4 q=34.1 size=    1536KiB time=00:00:04.03 bitrate=3119.8kbits/s speed=0.0121x elapsed=0:05:32.36    \nframe=  123 fps=0.4 q=34.1 size=    1536KiB time=00:00:04.03 bitrate=3119.8kbits/s speed=0.0121x elapsed=0:05:32.87    \nframe=  123 fps=0.4 q=34.1 size=    1536KiB time=00:00:04.03 bitrate=3119.8kbits/s speed=0.0121x elapsed=0:05:33.41    \nframe=  123 fps=0.4 q=34.1 size=    1536KiB time=00:00:04.03 bitrate=3119.8kbits/s speed=0.0121x elapsed=0:05:33.92    \nframe=  124 fps=0.4 q=29.5 size=    1536KiB time=00:00:04.06 bitrate=3094.2kbits/s speed=0.0122x elapsed=0:05:34.45    \nframe=  125 fps=0.4 q=31.6 size=    1536KiB time=00:00:04.10 bitrate=3069.1kbits/s speed=0.0122x elapsed=0:05:34.97    \nframe=  125 fps=0.4 q=31.6 size=    1536KiB time=00:00:04.10 bitrate=3069.1kbits/s speed=0.0122x elapsed=0:05:35.48    \nframe=  125 fps=0.4 q=31.6 size=    1536KiB time=00:00:04.10 bitrate=3069.1kbits/s speed=0.0122x elapsed=0:05:36.00    \nframe=  125 fps=0.4 q=31.6 size=    1536KiB time=00:00:04.10 bitrate=3069.1kbits/s speed=0.0122x elapsed=0:05:36.52    \nframe=  126 fps=0.4 q=33.8 size=    1536KiB time=00:00:04.13 bitrate=3044.3kbits/s speed=0.0123x elapsed=0:05:37.04    \nframe=  126 fps=0.4 q=33.8 size=    1536KiB time=00:00:04.13 bitrate=3044.3kbits/s speed=0.0122x elapsed=0:05:37.56    \nframe=  126 fps=0.4 q=33.8 size=    1536KiB time=00:00:04.13 bitrate=3044.3kbits/s speed=0.0122x elapsed=0:05:38.09    \nframe=  126 fps=0.4 q=33.8 size=    1536KiB time=00:00:04.13 bitrate=3044.3kbits/s speed=0.0122x elapsed=0:05:38.62    \nframe=  127 fps=0.4 q=33.7 size=    1536KiB time=00:00:04.16 bitrate=3020.0kbits/s speed=0.0123x elapsed=0:05:39.15    \nframe=  127 fps=0.4 q=33.7 size=    1536KiB time=00:00:04.16 bitrate=3020.0kbits/s speed=0.0123x elapsed=0:05:39.67    \nframe=  128 fps=0.4 q=29.6 size=    1536KiB time=00:00:04.20 bitrate=2996.0kbits/s speed=0.0123x elapsed=0:05:40.21    \nframe=  128 fps=0.4 q=29.6 size=    1536KiB time=00:00:04.20 bitrate=2996.0kbits/s speed=0.0123x elapsed=0:05:40.74    \nframe=  128 fps=0.4 q=29.6 size=    1536KiB time=00:00:04.20 bitrate=2996.0kbits/s speed=0.0123x elapsed=0:05:41.30    \nframe=  128 fps=0.4 q=29.6 size=    1536KiB time=00:00:04.20 bitrate=2996.0kbits/s speed=0.0123x elapsed=0:05:41.84    \nframe=  129 fps=0.4 q=31.5 size=    1536KiB time=00:00:04.23 bitrate=2972.4kbits/s speed=0.0124x elapsed=0:05:42.36    \nframe=  129 fps=0.4 q=31.5 size=    1536KiB time=00:00:04.23 bitrate=2972.4kbits/s speed=0.0123x elapsed=0:05:42.87    \nframe=  129 fps=0.4 q=31.5 size=    1536KiB time=00:00:04.23 bitrate=2972.4kbits/s speed=0.0123x elapsed=0:05:43.41    \nframe=  129 fps=0.4 q=31.5 size=    1536KiB time=00:00:04.23 bitrate=2972.4kbits/s speed=0.0123x elapsed=0:05:43.95    \nframe=  129 fps=0.4 q=31.5 size=    1536KiB time=00:00:04.23 bitrate=2972.4kbits/s speed=0.0123x elapsed=0:05:44.47    \nframe=  129 fps=0.4 q=31.5 size=    1536KiB time=00:00:04.23 bitrate=2972.4kbits/s speed=0.0123x elapsed=0:05:44.99    \nframe=  129 fps=0.4 q=31.5 size=    1536KiB time=00:00:04.23 bitrate=2972.4kbits/s speed=0.0123x elapsed=0:05:45.53    \nframe=  130 fps=0.4 q=33.6 size=    1536KiB time=00:00:04.26 bitrate=2949.2kbits/s speed=0.0123x elapsed=0:05:46.08    \nframe=  130 fps=0.4 q=33.6 size=    1536KiB time=00:00:04.26 bitrate=2949.2kbits/s speed=0.0123x elapsed=0:05:46.63    \nframe=  130 fps=0.4 q=33.6 size=    1536KiB time=00:00:04.26 bitrate=2949.2kbits/s speed=0.0123x elapsed=0:05:47.17    \nframe=  130 fps=0.4 q=33.6 size=    1536KiB time=00:00:04.26 bitrate=2949.2kbits/s speed=0.0123x elapsed=0:05:47.70    \nframe=  130 fps=0.4 q=33.6 size=    1536KiB time=00:00:04.26 bitrate=2949.2kbits/s speed=0.0123x elapsed=0:05:48.23    \nframe=  131 fps=0.4 q=33.7 size=    1536KiB time=00:00:04.30 bitrate=2926.3kbits/s speed=0.0123x elapsed=0:05:48.78    \nframe=  131 fps=0.4 q=33.7 size=    1536KiB time=00:00:04.30 bitrate=2926.3kbits/s speed=0.0123x elapsed=0:05:49.30    \nframe=  131 fps=0.4 q=33.7 size=    1536KiB time=00:00:04.30 bitrate=2926.3kbits/s speed=0.0123x elapsed=0:05:49.84    \nframe=  133 fps=0.4 q=31.4 size=    1536KiB time=00:00:04.33 bitrate=2903.8kbits/s speed=0.0124x elapsed=0:05:50.36    \nframe=  133 fps=0.4 q=31.4 size=    1536KiB time=00:00:04.36 bitrate=2881.7kbits/s speed=0.0124x elapsed=0:05:50.89    \nframe=  133 fps=0.4 q=31.4 size=    1536KiB time=00:00:04.36 bitrate=2881.7kbits/s speed=0.0124x elapsed=0:05:51.42    \nframe=  133 fps=0.4 q=31.4 size=    1536KiB time=00:00:04.36 bitrate=2881.7kbits/s speed=0.0124x elapsed=0:05:51.94    \nframe=  133 fps=0.4 q=31.4 size=    1536KiB time=00:00:04.36 bitrate=2881.7kbits/s speed=0.0124x elapsed=0:05:52.46    \nframe=  134 fps=0.4 q=33.6 size=    1536KiB time=00:00:04.40 bitrate=2859.8kbits/s speed=0.0125x elapsed=0:05:52.99    \nframe=  134 fps=0.4 q=33.6 size=    1536KiB time=00:00:04.40 bitrate=2859.8kbits/s speed=0.0124x elapsed=0:05:53.52    \nframe=  135 fps=0.4 q=33.5 size=    1536KiB time=00:00:04.43 bitrate=2838.3kbits/s speed=0.0125x elapsed=0:05:54.04    \nframe=  135 fps=0.4 q=33.5 size=    1536KiB time=00:00:04.43 bitrate=2838.3kbits/s speed=0.0125x elapsed=0:05:54.60    \nframe=  135 fps=0.4 q=33.5 size=    1536KiB time=00:00:04.43 bitrate=2838.3kbits/s speed=0.0125x elapsed=0:05:55.10    \nframe=  135 fps=0.4 q=33.5 size=    1536KiB time=00:00:04.43 bitrate=2838.3kbits/s speed=0.0125x elapsed=0:05:55.64    \nframe=  136 fps=0.4 q=28.5 size=    1536KiB time=00:00:04.46 bitrate=2817.1kbits/s speed=0.0125x elapsed=0:05:56.17    \nframe=  137 fps=0.4 q=30.9 size=    1536KiB time=00:00:04.50 bitrate=2796.3kbits/s speed=0.0126x elapsed=0:05:56.71    \nframe=  137 fps=0.4 q=30.9 size=    1536KiB time=00:00:04.50 bitrate=2796.3kbits/s speed=0.0126x elapsed=0:05:57.27    \nframe=  137 fps=0.4 q=30.9 size=    1536KiB time=00:00:04.50 bitrate=2796.3kbits/s speed=0.0126x elapsed=0:05:57.81    \nframe=  137 fps=0.4 q=30.9 size=    1536KiB time=00:00:04.50 bitrate=2796.3kbits/s speed=0.0126x elapsed=0:05:58.36    \nframe=  137 fps=0.4 q=30.9 size=    1536KiB time=00:00:04.50 bitrate=2796.3kbits/s speed=0.0125x elapsed=0:05:58.89    \nframe=  137 fps=0.4 q=30.9 size=    1536KiB time=00:00:04.50 bitrate=2796.3kbits/s speed=0.0125x elapsed=0:05:59.42    \nframe=  137 fps=0.4 q=30.9 size=    1536KiB time=00:00:04.50 bitrate=2796.3kbits/s speed=0.0125x elapsed=0:05:59.96    \nframe=  138 fps=0.4 q=31.2 size=    1536KiB time=00:00:04.53 bitrate=2775.7kbits/s speed=0.0126x elapsed=0:06:00.49    \nframe=  138 fps=0.4 q=31.2 size=    1536KiB time=00:00:04.53 bitrate=2775.7kbits/s speed=0.0126x elapsed=0:06:01.01    \nframe=  138 fps=0.4 q=31.2 size=    1536KiB time=00:00:04.53 bitrate=2775.7kbits/s speed=0.0125x elapsed=0:06:01.53    \nframe=  138 fps=0.4 q=31.2 size=    1536KiB time=00:00:04.53 bitrate=2775.7kbits/s speed=0.0125x elapsed=0:06:02.06    \nframe=  139 fps=0.4 q=32.5 size=    1536KiB time=00:00:04.56 bitrate=2755.5kbits/s speed=0.0126x elapsed=0:06:02.57    \nframe=  139 fps=0.4 q=32.5 size=    1536KiB time=00:00:04.56 bitrate=2755.5kbits/s speed=0.0126x elapsed=0:06:03.10    \nframe=  139 fps=0.4 q=32.5 size=    1536KiB time=00:00:04.56 bitrate=2755.5kbits/s speed=0.0126x elapsed=0:06:03.63    \nframe=  139 fps=0.4 q=32.5 size=    1536KiB time=00:00:04.56 bitrate=2755.5kbits/s speed=0.0125x elapsed=0:06:04.17    \nframe=  139 fps=0.4 q=32.5 size=    1536KiB time=00:00:04.56 bitrate=2755.5kbits/s speed=0.0125x elapsed=0:06:04.69    \nframe=  140 fps=0.4 q=33.7 size=    1536KiB time=00:00:04.60 bitrate=2735.5kbits/s speed=0.0126x elapsed=0:06:05.23    \nframe=  140 fps=0.4 q=33.7 size=    1536KiB time=00:00:04.60 bitrate=2735.5kbits/s speed=0.0126x elapsed=0:06:05.75    \nframe=  140 fps=0.4 q=33.7 size=    1536KiB time=00:00:04.60 bitrate=2735.5kbits/s speed=0.0126x elapsed=0:06:06.29    \nframe=  140 fps=0.4 q=33.7 size=    1536KiB time=00:00:04.60 bitrate=2735.5kbits/s speed=0.0125x elapsed=0:06:06.80    \nframe=  140 fps=0.4 q=33.7 size=    1536KiB time=00:00:04.60 bitrate=2735.5kbits/s speed=0.0125x elapsed=0:06:07.33    \nframe=  140 fps=0.4 q=33.7 size=    1536KiB time=00:00:04.60 bitrate=2735.5kbits/s speed=0.0125x elapsed=0:06:07.88    \nframe=  140 fps=0.4 q=33.7 size=    1536KiB time=00:00:04.60 bitrate=2735.5kbits/s speed=0.0125x elapsed=0:06:08.42    \nframe=  140 fps=0.4 q=33.7 size=    1536KiB time=00:00:04.60 bitrate=2735.5kbits/s speed=0.0125x elapsed=0:06:08.95    \nframe=  140 fps=0.4 q=33.7 size=    1536KiB time=00:00:04.60 bitrate=2735.5kbits/s speed=0.0124x elapsed=0:06:09.49    \nframe=  140 fps=0.4 q=33.7 size=    1536KiB time=00:00:04.60 bitrate=2735.5kbits/s speed=0.0124x elapsed=0:06:10.01    \nframe=  140 fps=0.4 q=33.7 size=    1536KiB time=00:00:04.60 bitrate=2735.5kbits/s speed=0.0124x elapsed=0:06:10.55    \nframe=  140 fps=0.4 q=33.7 size=    1536KiB time=00:00:04.60 bitrate=2735.5kbits/s speed=0.0124x elapsed=0:06:11.09    \nframe=  141 fps=0.4 q=33.6 size=    1536KiB time=00:00:04.63 bitrate=2715.8kbits/s speed=0.0125x elapsed=0:06:11.65    \nframe=  141 fps=0.4 q=33.6 size=    1536KiB time=00:00:04.63 bitrate=2715.8kbits/s speed=0.0124x elapsed=0:06:12.18    \nframe=  141 fps=0.4 q=33.6 size=    1536KiB time=00:00:04.63 bitrate=2715.8kbits/s speed=0.0124x elapsed=0:06:12.70    \nframe=  141 fps=0.4 q=33.6 size=    1536KiB time=00:00:04.63 bitrate=2715.8kbits/s speed=0.0124x elapsed=0:06:13.24    \nframe=  141 fps=0.4 q=33.6 size=    1536KiB time=00:00:04.63 bitrate=2715.8kbits/s speed=0.0124x elapsed=0:06:13.77    \nframe=  141 fps=0.4 q=33.6 size=    1536KiB time=00:00:04.63 bitrate=2715.8kbits/s speed=0.0124x elapsed=0:06:14.29    \nframe=  141 fps=0.4 q=33.6 size=    1536KiB time=00:00:04.63 bitrate=2715.8kbits/s speed=0.0124x elapsed=0:06:14.83    \nframe=  142 fps=0.4 q=29.2 size=    1536KiB time=00:00:04.66 bitrate=2696.4kbits/s speed=0.0124x elapsed=0:06:15.36    \nframe=  142 fps=0.4 q=29.2 size=    1536KiB time=00:00:04.66 bitrate=2696.4kbits/s speed=0.0124x elapsed=0:06:15.89    \nframe=  143 fps=0.4 q=29.0 size=    1536KiB time=00:00:04.70 bitrate=2677.3kbits/s speed=0.0125x elapsed=0:06:16.42    \nframe=  143 fps=0.4 q=29.0 size=    1536KiB time=00:00:04.70 bitrate=2677.3kbits/s speed=0.0125x elapsed=0:06:16.95    \nframe=  143 fps=0.4 q=29.0 size=    1536KiB time=00:00:04.70 bitrate=2677.3kbits/s speed=0.0125x elapsed=0:06:17.49    \nframe=  143 fps=0.4 q=29.0 size=    1536KiB time=00:00:04.70 bitrate=2677.3kbits/s speed=0.0124x elapsed=0:06:18.02    \nframe=  143 fps=0.4 q=29.0 size=    1536KiB time=00:00:04.70 bitrate=2677.3kbits/s speed=0.0124x elapsed=0:06:18.53    \nframe=  143 fps=0.4 q=29.0 size=    1536KiB time=00:00:04.70 bitrate=2677.3kbits/s speed=0.0124x elapsed=0:06:19.07    \nframe=  144 fps=0.4 q=29.3 size=    1536KiB time=00:00:04.73 bitrate=2658.4kbits/s speed=0.0125x elapsed=0:06:19.60    \nframe=  144 fps=0.4 q=29.3 size=    1536KiB time=00:00:04.73 bitrate=2658.4kbits/s speed=0.0125x elapsed=0:06:20.12    \nframe=  144 fps=0.4 q=29.3 size=    1536KiB time=00:00:04.73 bitrate=2658.4kbits/s speed=0.0124x elapsed=0:06:20.66    \nframe=  144 fps=0.4 q=29.3 size=    1536KiB time=00:00:04.73 bitrate=2658.4kbits/s speed=0.0124x elapsed=0:06:21.20    \nframe=  144 fps=0.4 q=29.3 size=    1536KiB time=00:00:04.73 bitrate=2658.4kbits/s speed=0.0124x elapsed=0:06:21.74    \nframe=  144 fps=0.4 q=29.3 size=    1536KiB time=00:00:04.73 bitrate=2658.4kbits/s speed=0.0124x elapsed=0:06:22.27    \nframe=  145 fps=0.4 q=30.5 size=    1536KiB time=00:00:04.73 bitrate=2658.4kbits/s speed=0.0124x elapsed=0:06:22.81    \nframe=  145 fps=0.4 q=30.5 size=    1536KiB time=00:00:04.76 bitrate=2639.8kbits/s speed=0.0124x elapsed=0:06:23.35    \nframe=  146 fps=0.4 q=31.9 size=    1536KiB time=00:00:04.80 bitrate=2621.5kbits/s speed=0.0125x elapsed=0:06:23.88    \nframe=  146 fps=0.4 q=31.9 size=    1536KiB time=00:00:04.80 bitrate=2621.5kbits/s speed=0.0125x elapsed=0:06:24.40    \nframe=  146 fps=0.4 q=31.9 size=    1536KiB time=00:00:04.80 bitrate=2621.5kbits/s speed=0.0125x elapsed=0:06:24.92    \nframe=  146 fps=0.4 q=31.9 size=    1536KiB time=00:00:04.80 bitrate=2621.5kbits/s speed=0.0125x elapsed=0:06:25.50    \nframe=  146 fps=0.4 q=31.9 size=    1536KiB time=00:00:04.80 bitrate=2621.5kbits/s speed=0.0124x elapsed=0:06:26.06    \nframe=  146 fps=0.4 q=31.9 size=    1536KiB time=00:00:04.80 bitrate=2621.5kbits/s speed=0.0124x elapsed=0:06:26.62    \nframe=  146 fps=0.4 q=31.9 size=    1536KiB time=00:00:04.80 bitrate=2621.5kbits/s speed=0.0124x elapsed=0:06:27.15    \nframe=  146 fps=0.4 q=31.9 size=    1536KiB time=00:00:04.80 bitrate=2621.5kbits/s speed=0.0124x elapsed=0:06:27.67    \nframe=  146 fps=0.4 q=31.9 size=    1536KiB time=00:00:04.80 bitrate=2621.5kbits/s speed=0.0124x elapsed=0:06:28.19    \nframe=  147 fps=0.4 q=31.9 size=    1536KiB time=00:00:04.83 bitrate=2603.4kbits/s speed=0.0124x elapsed=0:06:28.70    \nframe=  147 fps=0.4 q=31.9 size=    1536KiB time=00:00:04.83 bitrate=2603.4kbits/s speed=0.0124x elapsed=0:06:29.25    \nframe=  147 fps=0.4 q=31.9 size=    1536KiB time=00:00:04.83 bitrate=2603.4kbits/s speed=0.0124x elapsed=0:06:29.78    \nframe=  147 fps=0.4 q=31.9 size=    1536KiB time=00:00:04.83 bitrate=2603.4kbits/s speed=0.0124x elapsed=0:06:30.34    \nframe=  147 fps=0.4 q=31.9 size=    1536KiB time=00:00:04.83 bitrate=2603.4kbits/s speed=0.0124x elapsed=0:06:30.88    \nframe=  147 fps=0.4 q=31.9 size=    1536KiB time=00:00:04.83 bitrate=2603.4kbits/s speed=0.0123x elapsed=0:06:31.51    \nframe=  147 fps=0.4 q=31.9 size=    1536KiB time=00:00:04.83 bitrate=2603.4kbits/s speed=0.0123x elapsed=0:06:32.10    \nframe=  149 fps=0.4 q=30.3 size=    1792KiB time=00:00:04.90 bitrate=2996.0kbits/s speed=0.0125x elapsed=0:06:32.65    \nframe=  149 fps=0.4 q=30.3 size=    1792KiB time=00:00:04.90 bitrate=2996.0kbits/s speed=0.0125x elapsed=0:06:33.21    \nframe=  149 fps=0.4 q=30.3 size=    1792KiB time=00:00:04.90 bitrate=2996.0kbits/s speed=0.0124x elapsed=0:06:33.72    \nframe=  149 fps=0.4 q=30.3 size=    1792KiB time=00:00:04.90 bitrate=2996.0kbits/s speed=0.0124x elapsed=0:06:34.31    \nframe=  149 fps=0.4 q=30.3 size=    1792KiB time=00:00:04.90 bitrate=2996.0kbits/s speed=0.0124x elapsed=0:06:34.85    \n[mp4 @ 000002032d46aa40] Starting second pass: moving the moov atom to the beginning of the file\n[out#0/mp4 @ 000002032f403c80] video:1812KiB audio:0KiB subtitle:0KiB other streams:0KiB global headers:2KiB muxing overhead: 0.282226%\nframe=  150 fps=0.4 q=31.6 Lsize=    1817KiB time=00:00:04.93 bitrate=3017.0kbits/s speed=0.0125x elapsed=0:06:35.33    \nx265 [info]: frame I:      3, Avg QP:33.16  kb/s: 1453.36 \nx265 [info]: frame P:     44, Avg QP:29.04  kb/s: 4652.56 \nx265 [info]: frame B:    103, Avg QP:32.53  kb/s: 2291.69 \nx265 [info]: Weighted P-Frames: Y:0.0% UV:0.0%\n\nencoded 150 frames in 395.17s (0.38 fps), 2967.44 kb/s, Avg QP:31.52\n",
  "seconds": 395.63344264030457,
  "probe_out": {}
}